<svg width="400" height="300" viewBox="0 0 400 300" fill="none" xmlns="http://www.w3.org/2000/svg">
<path d="M392.469 263.585H7.60112C3.41702 263.585 0 260.168 0 255.983C0 251.799 3.41702 248.382 7.60112 248.382H392.399C396.583 248.382 400 251.799 400 255.983C400 260.168 396.583 263.585 392.399 263.585H392.469Z" fill="#6B6B6B"/>
<path opacity="0.2" d="M355.509 256.68H36.9596C35.9136 256.68 35.1465 255.844 35.1465 254.867C35.1465 253.821 35.9833 253.054 36.9596 253.054H355.509C356.555 253.054 357.322 253.891 357.322 254.867C357.322 255.913 356.485 256.68 355.509 256.68Z" fill="black"/>
<path d="M126.428 254.379L92.0488 25.3697C92.0488 25.021 92.2581 24.6724 92.6765 24.6724H98.3947C98.6737 24.6724 98.9526 24.8816 99.0223 25.1605L133.402 254.17" fill="#4D4D4D"/>
<path d="M91.143 254.379L56.7637 25.3697C56.7637 25.021 56.9729 24.6724 57.3913 24.6724H63.1095C63.3885 24.6724 63.6674 24.8816 63.7372 25.1605L98.1165 254.17" fill="#4D4D4D"/>
<path d="M90.7938 220.14H123.221C125.034 220.14 126.428 218.675 126.428 216.932C126.428 215.119 124.964 213.724 123.221 213.724H90.7938C88.9806 213.724 87.5859 215.189 87.5859 216.932C87.5859 218.745 89.0504 220.14 90.7938 220.14Z" fill="#4D4D4D"/>
<path d="M86.1219 189.875H118.549C120.362 189.875 121.756 188.41 121.756 186.667C121.756 184.854 120.292 183.459 118.549 183.459H86.1219C84.3087 183.459 82.9141 184.923 82.9141 186.667C82.9141 188.48 84.3785 189.875 86.1219 189.875Z" fill="#4D4D4D"/>
<path d="M81.45 159.609H113.877C115.69 159.609 117.085 158.145 117.085 156.402C117.085 154.589 115.62 153.194 113.877 153.194H81.45C79.6369 153.194 78.2422 154.658 78.2422 156.402C78.2422 158.215 79.7066 159.609 81.45 159.609Z" fill="#4D4D4D"/>
<path d="M76.7762 129.414H109.203C111.016 129.414 112.411 127.95 112.411 126.206C112.411 124.393 110.946 122.999 109.203 122.999H76.7762C74.9631 122.999 73.5684 124.463 73.5684 126.206C73.5684 128.019 75.0328 129.414 76.7762 129.414Z" fill="#4D4D4D"/>
<path d="M73.1512 102.078H105.578C107.391 102.078 108.786 100.614 108.786 98.8704C108.786 97.0573 107.321 95.6626 105.578 95.6626H73.1512C71.3381 95.6626 69.9434 97.127 69.9434 98.8704C69.9434 100.684 71.4078 102.078 73.1512 102.078Z" fill="#4D4D4D"/>
<path d="M68.4773 71.8131H100.904C102.717 71.8131 104.112 70.3487 104.112 68.6053C104.112 66.7922 102.647 65.3975 100.904 65.3975H68.4773C66.6642 65.3975 65.2695 66.8619 65.2695 68.6053C65.2695 70.4184 66.734 71.8131 68.4773 71.8131Z" fill="#4D4D4D"/>
<path d="M64.8523 44.4771H97.2791C99.0922 44.4771 100.487 43.0127 100.487 41.2693C100.487 39.4562 99.0225 38.0615 97.2791 38.0615H64.8523C63.0392 38.0615 61.6445 39.526 61.6445 41.2693C61.6445 43.0824 63.1089 44.4771 64.8523 44.4771Z" fill="#4D4D4D"/>
<path d="M29.1493 254.379L63.5286 25.3697C63.5286 25.021 63.3194 24.6724 62.901 24.6724H57.1827C56.9038 24.6724 56.6249 24.8816 56.5551 25.1605L22.1758 254.17" fill="#CACACA"/>
<path d="M64.3641 254.379L98.7435 25.3697C98.7435 25.021 98.5343 24.6724 98.1159 24.6724H92.3976C92.1186 24.6724 91.8397 24.8816 91.77 25.1605L57.3906 254.17" fill="#CACACA"/>
<path d="M64.7147 220.14H32.2879C30.4748 220.14 29.0801 218.675 29.0801 216.932C29.0801 215.119 30.5445 213.724 32.2879 213.724H64.7147C66.5278 213.724 67.9225 215.189 67.9225 216.932C67.9225 218.745 66.458 220.14 64.7147 220.14Z" fill="#CACACA"/>
<path d="M69.3865 189.875H36.9597C35.1466 189.875 33.752 188.41 33.752 186.667C33.752 184.854 35.2164 183.459 36.9597 183.459H69.3865C71.1996 183.459 72.5943 184.923 72.5943 186.667C72.5943 188.48 71.1299 189.875 69.3865 189.875Z" fill="#CACACA"/>
<path d="M74.0584 159.609H41.6316C39.8185 159.609 38.4238 158.145 38.4238 156.402C38.4238 154.589 39.8883 153.194 41.6316 153.194H74.0584C75.8715 153.194 77.2662 154.658 77.2662 156.402C77.2662 158.215 75.8018 159.609 74.0584 159.609Z" fill="#CACACA"/>
<path d="M78.8006 129.414H46.3738C44.5607 129.414 43.166 127.95 43.166 126.206C43.166 124.393 44.6304 122.999 46.3738 122.999H78.8006C80.6137 122.999 82.0084 124.463 82.0084 126.206C82.0084 128.019 80.544 129.414 78.8006 129.414Z" fill="#CACACA"/>
<path d="M82.3573 102.078H49.9305C48.1174 102.078 46.7227 100.614 46.7227 98.8704C46.7227 97.0573 48.1871 95.6626 49.9305 95.6626H82.3573C84.1704 95.6626 85.5651 97.127 85.5651 98.8704C85.5651 100.684 84.1006 102.078 82.3573 102.078Z" fill="#CACACA"/>
<path d="M87.0291 71.8131H54.6023C52.7892 71.8131 51.3945 70.3487 51.3945 68.6053C51.3945 66.7922 52.859 65.3975 54.6023 65.3975H87.0291C88.8422 65.3975 90.2369 66.8619 90.2369 68.6053C90.2369 70.4184 88.7725 71.8131 87.0291 71.8131Z" fill="#CACACA"/>
<path d="M90.6561 44.4771H58.2293C56.4162 44.4771 55.0215 43.0127 55.0215 41.2693C55.0215 39.4562 56.4859 38.0615 58.2293 38.0615H90.6561C92.4692 38.0615 93.8639 39.526 93.8639 41.2693C93.8639 43.0824 92.3994 44.4771 90.6561 44.4771Z" fill="#CACACA"/>
<path d="M98.396 25.788H56.6945C55.5787 25.788 54.7419 24.742 55.0209 23.6959L55.4393 21.3947C55.5787 20.6276 56.3458 20 57.1129 20H98.8144C99.9302 20 100.767 21.046 100.488 22.0921L100.07 24.3933C99.9302 25.1604 99.1631 25.788 98.396 25.788Z" fill="#FDBD31"/>
<path d="M276.849 227.462L275.315 220.14L274.757 217.35L274.129 214.491L270.712 198.034C270.503 197.127 269.666 196.43 268.76 196.43H259.555L257.881 184.854H266.807C268.063 184.854 269.039 183.668 268.76 182.413L267.226 175.091L266.668 172.301L266.04 169.442L262.623 152.985C262.414 152.078 261.577 151.381 260.671 151.381H252.93L251.954 144.965C251.954 144.686 251.675 144.477 251.326 144.477H245.608C245.259 144.477 244.98 144.826 244.98 145.174L245.887 151.451H168.411L167.435 145.035C167.435 144.756 167.156 144.547 166.807 144.547H161.089C160.74 144.547 160.461 144.895 160.461 145.244L161.368 151.52H151.256C150.001 151.52 149.025 152.706 149.304 153.961L152.442 169.093L153.627 174.812L155.44 183.459C155.65 184.365 156.486 185.063 157.393 185.063H166.319L167.993 196.639H159.346C158.09 196.639 157.114 197.824 157.393 199.08L160.531 214.212L161.717 219.93L163.53 228.577C163.739 229.484 164.576 230.181 165.482 230.181H173.014L176.5 253.961C176.5 254.24 176.779 254.449 177.128 254.449H182.846C183.195 254.449 183.474 254.1 183.474 253.752L179.987 230.181H257.463L260.95 253.961C260.95 254.24 261.228 254.449 261.577 254.449H267.295C267.644 254.449 267.923 254.1 267.923 253.752L264.436 230.181H274.757C276.012 230.181 276.989 228.996 276.71 227.741L276.849 227.462ZM252.651 196.36H175.175L173.502 184.784H250.977L252.651 196.36Z" fill="#4D4D4D"/>
<path d="M224.827 254.17H230.545C230.824 254.17 231.103 253.961 231.173 253.682L247.212 145.035C247.212 144.686 247.003 144.337 246.584 144.337H240.866C240.587 144.337 240.308 144.547 240.238 144.826L224.199 253.473C224.199 253.821 224.408 254.17 224.827 254.17Z" fill="#CACACA"/>
<path d="M140.378 254.17H146.096C146.375 254.17 146.654 253.961 146.724 253.682L162.763 145.035C162.763 144.686 162.553 144.337 162.135 144.337H156.417C156.138 144.337 155.859 144.547 155.789 144.826L139.75 253.473C139.75 253.821 139.959 254.17 140.378 254.17Z" fill="#CACACA"/>
<path d="M141 184.784H250.205C251.182 184.784 252.019 184.086 252.158 183.18L258.295 153.682C258.574 152.427 257.597 151.241 256.342 151.241H147.137C146.161 151.241 145.324 151.939 145.185 152.845L139.048 182.343C138.769 183.598 139.745 184.784 141 184.784Z" fill="#F0F0F0"/>
<path d="M155.926 151.241L176.498 184.784H188.004L167.432 151.241H155.926Z" fill="#FDBD31"/>
<path d="M141.143 172.162L148.883 184.784H157.042L143.165 162.259L141.143 172.162Z" fill="#FDBD31"/>
<path d="M188.215 151.241L208.856 184.784H217.015L196.374 151.241H188.215Z" fill="#FDBD31"/>
<path d="M212.062 151.241L232.704 184.784H240.793L220.221 151.241H212.062Z" fill="#FDBD31"/>
<path d="M244.421 151.241H236.262L253.138 178.717L255.23 168.814L244.421 151.241Z" fill="#FDBD31"/>
<path d="M132.913 229.902H242.118C243.094 229.902 243.931 229.205 244.07 228.299L250.207 198.801C250.486 197.545 249.51 196.36 248.254 196.36H139.049C138.073 196.36 137.236 197.057 137.097 197.964L130.96 227.462C130.681 228.717 131.657 229.902 132.913 229.902Z" fill="#F0F0F0"/>
<path d="M147.764 196.36L168.405 229.902H179.911L159.34 196.36H147.764Z" fill="#FDBD31"/>
<path d="M133.051 217.28L140.791 229.902H148.881L135.073 207.378L133.051 217.28Z" fill="#FDBD31"/>
<path d="M180.123 196.36L200.765 229.902H208.854L188.282 196.36H180.123Z" fill="#FDBD31"/>
<path d="M203.971 196.36L224.612 229.902H232.702L212.13 196.36H203.971Z" fill="#FDBD31"/>
<path d="M236.329 196.36H228.17L245.046 223.835L247.138 213.933L236.329 196.36Z" fill="#FDBD31"/>
<path d="M145.467 203.264H151.255C152.511 203.264 153.557 202.218 153.557 200.962C153.557 199.707 152.511 198.661 151.255 198.661H145.467C144.212 198.661 143.166 199.707 143.166 200.962C143.166 202.218 144.212 203.264 145.467 203.264Z" fill="white"/>
<path d="M229.149 216.373H232.985C233.822 216.373 234.519 215.676 234.519 214.839C234.519 214.002 233.822 213.305 232.985 213.305H229.149C228.313 213.305 227.615 214.002 227.615 214.839C227.615 215.676 228.313 216.373 229.149 216.373Z" fill="white"/>
<path d="M169.805 158.145H175.593C176.848 158.145 177.894 157.099 177.894 155.844C177.894 154.588 176.848 153.542 175.593 153.542H169.805C168.55 153.542 167.504 154.588 167.504 155.844C167.504 157.099 168.55 158.145 169.805 158.145Z" fill="white"/>
<path d="M155.928 173.208H162.902C164.157 173.208 165.203 172.162 165.203 170.907C165.203 169.651 164.157 168.605 162.902 168.605H155.928C154.673 168.605 153.627 169.651 153.627 170.907C153.627 172.162 154.673 173.208 155.928 173.208Z" fill="white"/>
<path d="M235.706 160.446H242.679C243.934 160.446 244.98 159.4 244.98 158.145C244.98 156.89 243.934 155.844 242.679 155.844H235.706C234.45 155.844 233.404 156.89 233.404 158.145C233.404 159.4 234.45 160.446 235.706 160.446Z" fill="white"/>
<path d="M289.681 93.8491H284.8C284.453 93.8491 284.172 94.1301 284.172 94.4767V253.542C284.172 253.889 284.453 254.17 284.8 254.17H289.681C290.028 254.17 290.309 253.889 290.309 253.542V94.4767C290.309 94.1301 290.028 93.8491 289.681 93.8491Z" fill="#CACACA"/>
<path d="M239.959 76.6944L283.752 120.488C285.705 122.441 288.843 122.441 290.726 120.488L334.519 76.6944C336.472 74.7418 336.472 71.6037 334.519 69.7209L290.726 25.9273C288.773 23.9747 285.635 23.9747 283.752 25.9273L239.959 69.7209C238.006 71.6735 238.006 74.8116 239.959 76.6944Z" fill="#FDBD31"/>
<path d="M247.769 75.3694L284.31 111.911C285.914 113.514 288.564 113.514 290.168 111.911L326.709 75.3694C328.313 73.7655 328.313 71.1156 326.709 69.5117L290.168 32.9705C288.564 31.3666 285.914 31.3666 284.31 32.9705L247.769 69.5117C246.165 71.1156 246.165 73.7655 247.769 75.3694Z" fill="white"/>
<path d="M316.39 208.842C316.181 208.145 315.204 208.145 314.995 208.842L309.695 223.696H321.62L316.46 208.842H316.39Z" fill="#FDBD31"/>
<path d="M331.174 251.451L326.851 238.898H304.257L299.794 251.381C299.584 251.869 300.003 252.357 300.491 252.357H330.477C330.965 252.357 331.383 251.869 331.174 251.381V251.451Z" fill="#FDBD31"/>
<path d="M321.55 223.766H309.625L304.256 238.968H326.85L321.55 223.766Z" fill="#F0F0F0"/>
<path d="M334.867 249.917H296.234C295.695 249.917 295.258 250.354 295.258 250.893V253.194C295.258 253.733 295.695 254.17 296.234 254.17H334.867C335.406 254.17 335.844 253.733 335.844 253.194V250.893C335.844 250.354 335.406 249.917 334.867 249.917Z" fill="#F5AD21"/>
<path d="M315.691 225.439H317.364C318.062 225.439 318.62 224.881 318.62 224.184C318.62 223.487 318.062 222.929 317.364 222.929H315.691C314.993 222.929 314.436 223.487 314.436 224.184C314.436 224.881 314.993 225.439 315.691 225.439Z" fill="white"/>
<path d="M311.856 238.968H308.509C308.021 238.968 307.672 238.619 307.672 238.131C307.672 237.643 308.021 237.294 308.509 237.294H311.856C312.344 237.294 312.693 237.643 312.693 238.131C312.693 238.619 312.344 238.968 311.856 238.968Z" fill="white"/>
<path d="M319.876 246.569H322.387C323.084 246.569 323.642 246.011 323.642 245.314C323.642 244.616 323.084 244.059 322.387 244.059H319.876C319.179 244.059 318.621 244.616 318.621 245.314C318.621 246.011 319.179 246.569 319.876 246.569Z" fill="#FDCF76"/>
<path d="M314.435 219.512H313.599C313.11 219.512 312.762 219.163 312.762 218.675C312.762 218.187 313.11 217.838 313.599 217.838H314.435C314.924 217.838 315.272 218.187 315.272 218.675C315.272 219.163 314.924 219.512 314.435 219.512Z" fill="#FDCF76"/>
<path d="M127.407 253.821L128.662 254.937C129.011 255.216 129.499 255.355 129.917 255.146L131.452 254.588C136.891 252.566 140.796 248.103 141.842 242.733L144.283 229.902C144.353 229.414 144.143 228.926 143.655 228.716L141.494 227.67C139.401 226.694 137.17 225.927 134.869 225.509C132.707 225.09 130.406 224.951 128.174 225.021L125.385 225.16C124.827 225.16 124.408 225.509 124.339 225.997L121.898 238.689C120.852 244.128 122.874 249.776 127.268 253.682L127.407 253.821Z" fill="#1A1A1A"/>
<path d="M132.986 234.993C132.289 234.853 131.8 234.156 131.94 233.458L148.118 149.428C148.258 148.73 148.955 148.242 149.653 148.382C150.35 148.521 150.838 149.219 150.699 149.916L134.52 233.947C134.381 234.644 133.683 235.132 132.986 234.993Z" fill="#CACACA"/>
<path d="M132.915 236.108C131.939 235.899 131.312 234.993 131.451 233.947L136.193 209.539C136.193 209.33 136.472 209.191 136.681 209.26L139.471 209.818C139.68 209.818 139.819 210.097 139.749 210.306L135.007 234.714C134.798 235.69 133.892 236.318 132.846 236.178L132.915 236.108Z" fill="#333333"/>
<path d="M151.571 147.186L148.695 146.632L147.68 151.905L150.556 152.459L151.571 147.186Z" fill="#FDBD31"/>
<path d="M146.444 137.364L145.05 144.477C144.771 145.941 145.747 147.336 147.211 147.615L152.163 148.591C153.627 148.87 155.022 147.894 155.301 146.429L156.695 139.316C156.835 138.619 156.347 137.922 155.649 137.782L147.909 136.318C147.211 136.178 146.514 136.666 146.375 137.364H146.444ZM150.489 145.941L149.722 145.802C148.257 145.523 147.281 144.128 147.56 142.664L148.327 138.759L154.394 139.944L153.627 143.849C153.348 145.314 151.953 146.29 150.489 146.011V145.941Z" fill="#FDBD31"/>
<path d="M154.117 137.225L149.871 136.408L149.344 139.147L153.589 139.964L154.117 137.225Z" fill="#333333"/>
<path opacity="0.2" d="M307.81 269.861H368.619C369.316 269.861 369.874 269.303 369.874 268.605C369.874 267.908 369.316 267.35 368.619 267.35H307.81C307.113 267.35 306.555 267.908 306.555 268.605C306.555 269.303 307.113 269.861 307.81 269.861Z" fill="black"/>
<path opacity="0.2" d="M44.7005 269.163H105.509C106.207 269.163 106.765 268.605 106.765 267.908C106.765 267.211 106.207 266.653 105.509 266.653H44.7005C44.0032 266.653 43.4453 267.211 43.4453 267.908C43.4453 268.605 44.0032 269.163 44.7005 269.163Z" fill="black"/>
<path opacity="0.2" d="M83.5443 279.554H224.13C224.827 279.554 225.385 278.996 225.385 278.299C225.385 277.601 224.827 277.043 224.13 277.043H83.5443C82.847 277.043 82.2891 277.601 82.2891 278.299C82.2891 278.996 82.847 279.554 83.5443 279.554Z" fill="black"/>
<path d="M75.9407 209.958C75.7315 209.261 74.7552 209.261 74.546 209.958L69.2461 224.812H81.1708L76.0104 209.958H75.9407Z" fill="#FDBD31"/>
<path d="M90.725 252.566L86.4015 240.014H63.8073L59.3443 252.497C59.1351 252.985 59.5535 253.473 60.0416 253.473H90.0277C90.5158 253.473 90.9342 252.985 90.725 252.497V252.566Z" fill="#FDBD31"/>
<path d="M81.1009 224.812H69.246L63.8066 240.083H86.4008L81.1009 224.812Z" fill="#F0F0F0"/>
<path d="M94.422 251.032H55.7888C55.2496 251.032 54.8125 251.469 54.8125 252.009V254.31C54.8125 254.849 55.2496 255.286 55.7888 255.286H94.422C94.9612 255.286 95.3983 254.849 95.3983 254.31V252.009C95.3983 251.469 94.9612 251.032 94.422 251.032Z" fill="#F5AD21"/>
<path d="M76.9849 223.975H75.2416C74.5483 223.975 73.9863 224.537 73.9863 225.23C73.9863 225.924 74.5483 226.486 75.2416 226.486H76.9849C77.6782 226.486 78.2402 225.924 78.2402 225.23C78.2402 224.537 77.6782 223.975 76.9849 223.975Z" fill="white"/>
<path d="M71.4068 240.084H68.0595C67.5713 240.084 67.2227 239.735 67.2227 239.247C67.2227 238.759 67.5713 238.41 68.0595 238.41H71.4068C71.8949 238.41 72.2436 238.759 72.2436 239.247C72.2436 239.735 71.8949 240.084 71.4068 240.084Z" fill="white"/>
<path d="M79.4955 247.685H82.0059C82.7033 247.685 83.2612 247.127 83.2612 246.43C83.2612 245.732 82.7033 245.174 82.0059 245.174H79.4955C78.7981 245.174 78.2402 245.732 78.2402 246.43C78.2402 247.127 78.7981 247.685 79.4955 247.685Z" fill="#FDCF76"/>
<path d="M73.9881 220.628H73.1513C72.6631 220.628 72.3145 220.279 72.3145 219.791C72.3145 219.303 72.6631 218.954 73.1513 218.954H73.9881C74.4762 218.954 74.8249 219.303 74.8249 219.791C74.8249 220.279 74.4762 220.628 73.9881 220.628Z" fill="#FDCF76"/>
<path d="M287.866 79.693H284.379C283.961 79.693 283.682 79.3443 283.612 78.9956L282.984 51.52C282.984 51.1016 283.333 50.7529 283.751 50.7529H288.493C288.912 50.7529 289.261 51.1016 289.261 51.52L288.633 78.9956C288.633 79.414 288.284 79.693 287.866 79.693ZM288.493 89.3164H283.821C283.403 89.3164 283.054 88.9677 283.054 88.5493V83.8771C283.054 83.4586 283.403 83.11 283.821 83.11H288.493C288.912 83.11 289.261 83.4586 289.261 83.8771V88.5493C289.261 88.9677 288.912 89.3164 288.493 89.3164Z" fill="#4D4D4D"/>
</svg>
