<svg width="32" height="32" viewBox="0 0 32 32" fill="none" xmlns="http://www.w3.org/2000/svg">
<g clip-path="url(#clip0_609_751)">
<g clip-path="url(#clip1_609_751)">
<path d="M0.499909 7.93408C0.796449 6.71317 1.32197 4.98213 6.12599 4.04475C10.9073 3.11199 17.8827 2.26497 20.4957 2.15575C22.5395 2.07038 24.8635 2.03338 25.1465 5.87646C25.4224 9.62101 25.7776 16.299 25.7289 19.0774C25.6823 21.7301 26.2736 24.7963 23.0163 25.1876C14.0145 26.2698 3.09979 27.3836 1.86527 26.8546C0.630401 26.326 0.0728774 22.6622 0.0184762 17.1613C-0.0355695 11.6605 0.203369 9.15499 0.499909 7.93408Z" fill="url(#paint0_linear_609_751)"/>
<path d="M4.64156 5.7651C6.82009 5.69253 17.2033 5.88961 19.9703 6.0408C22.7372 6.19199 24.6836 7.12083 24.6143 10.4637C24.5833 11.9497 22.1687 16.2869 22.2597 18.7351C22.3753 21.8425 24.4393 23.5625 24.6516 25.5682C24.8006 26.9759 24.701 29.7767 21.7022 29.8386C15.3735 29.9695 7.23255 29.6422 3.03014 28.7194C0.548665 28.1744 0.582088 27.5049 0.351328 25.072C0.250348 24.0012 0.0409207 19.4864 0.00500875 16.3111C-0.0373033 12.5409 0.190257 9.1756 0.499953 7.93442C0.928052 6.21867 2.38551 5.84052 4.6412 5.76545L4.64156 5.7651Z" fill="url(#paint1_linear_609_751)"/>
<path d="M11.1373 10.5936C10.9692 10.1717 10.7185 9.80242 10.3992 9.49613C10.0849 9.19019 9.69802 8.94686 9.24895 8.77077C8.8052 8.59823 8.30919 8.50111 7.77443 8.48511C7.23966 8.4691 6.73405 8.53491 6.2807 8.6829C5.82558 8.83231 5.42522 9.05216 5.08814 9.34245C4.75285 9.62917 4.4844 9.98349 4.29168 10.3944C4.09897 10.8038 3.99265 11.262 3.97772 11.7576C3.96314 12.2528 4.04208 12.7238 4.21026 13.1471C4.37844 13.5726 4.62556 13.9418 4.94307 14.2549C5.26095 14.5644 5.64922 14.8145 6.09261 14.9941C6.53813 15.1702 7.03592 15.2691 7.57389 15.2851C8.11186 15.3011 8.61107 15.2353 9.06441 15.0856C9.52309 14.9312 9.92559 14.706 10.2573 14.4139C10.5944 14.1218 10.8632 13.7661 11.0559 13.3517C11.2486 12.9372 11.3553 12.4751 11.3699 11.9781C11.3845 11.4812 11.3052 11.0205 11.137 10.5989H11.1352L11.137 10.5939L11.1373 10.5936Z" fill="white"/>
<path d="M10.7619 11.1863C10.6666 10.9472 10.5247 10.738 10.3434 10.5644C10.1652 10.3908 9.94622 10.2531 9.69164 10.1535C9.44026 10.0557 9.15901 10.0006 8.85607 9.99168C8.55313 9.98279 8.26654 10.0198 8.00947 10.1037C7.75168 10.1884 7.52448 10.3129 7.33354 10.4776C7.14367 10.6402 6.99149 10.8408 6.88198 11.0738C6.77282 11.3058 6.71237 11.5655 6.7042 11.8462C6.69602 12.1268 6.74082 12.3937 6.83575 12.6338C6.93104 12.8746 7.07114 13.0841 7.25105 13.2613C7.43097 13.4367 7.65106 13.5783 7.90244 13.68C8.15489 13.78 8.43686 13.8358 8.74193 13.8447C9.047 13.8536 9.32968 13.8163 9.58639 13.7316C9.84631 13.6441 10.0742 13.5167 10.2623 13.351C10.4533 13.1855 10.6054 12.9838 10.715 12.749C10.8241 12.5142 10.8846 12.2524 10.8931 11.9707C10.9013 11.6889 10.8565 11.4282 10.7612 11.1891H10.7601L10.7612 11.1863H10.7619Z" fill="#222222"/>
<path d="M31.7635 11.7622C31.1441 8.52923 28.5656 9.74089 27.2578 9.78535C26.3543 9.81595 25.4441 9.48119 25.0405 9.22897C25.1767 11.8561 25.2983 14.605 25.3687 16.9141C25.3936 17.5989 25.4156 18.2563 25.4338 18.8728C25.8103 17.3915 27.5526 18.6245 29.6749 18.5526C31.8186 18.4801 32.3826 14.9956 31.7635 11.7622Z" fill="url(#paint2_linear_609_751)"/>
</g>
</g>
<defs>
<linearGradient id="paint0_linear_609_751" x1="-0.0704535" y1="15.0024" x2="25.756" y2="14.128" gradientUnits="userSpaceOnUse">
<stop stop-color="#893BF1"/>
<stop offset="0.89" stop-color="#6500EE"/>
</linearGradient>
<linearGradient id="paint1_linear_609_751" x1="18.6004" y1="7.7476" x2="6.91702" y2="27.9568" gradientUnits="userSpaceOnUse">
<stop stop-color="#CD65FD"/>
<stop offset="0.31" stop-color="#A53EF5"/>
<stop offset="0.39" stop-color="#9E38F3"/>
<stop offset="1" stop-color="#6B0AE5"/>
</linearGradient>
<linearGradient id="paint2_linear_609_751" x1="25.3213" y1="14.3194" x2="31.4028" y2="13.4508" gradientUnits="userSpaceOnUse">
<stop stop-color="#6500EE"/>
<stop offset="1" stop-color="#893BF1"/>
</linearGradient>
<clipPath id="clip0_609_751">
<rect width="32" height="32" fill="white"/>
</clipPath>
<clipPath id="clip1_609_751">
<rect width="32" height="32" fill="white"/>
</clipPath>
</defs>
</svg>
