<svg width="271" height="42" viewBox="0 0 271 42" fill="none" xmlns="http://www.w3.org/2000/svg">
<path d="M225.335 19.6872C225.732 18.5707 225.935 17.3266 225.935 16.0002C225.935 14.5839 225.732 13.3024 225.328 12.1783C224.931 11.0842 224.324 10.1475 223.522 9.39057C222.712 8.62619 221.671 8.03416 220.427 7.62949C219.16 7.20983 217.631 7 215.885 7H204V32.1122H207.605V25.1278L215.915 25.1428C217.654 25.1428 219.175 24.9105 220.434 24.4459C221.678 23.9887 222.72 23.3518 223.529 22.5499C224.339 21.7481 224.946 20.7814 225.335 19.6872ZM221.701 18.3158C221.446 19.0353 221.049 19.6573 220.524 20.1593C220.007 20.6614 219.355 21.0511 218.598 21.3209C217.856 21.5832 216.987 21.7181 216.013 21.7181H207.612V10.4547H216.013C217.984 10.4547 219.497 10.9493 220.524 11.9235C221.558 12.9052 222.083 14.2766 222.083 16.0002C222.083 16.8395 221.955 17.6189 221.708 18.3158H221.701Z" fill="white"/>
<path d="M247.36 32.1122V24.0562C247.36 20.3092 246.588 17.5065 245.067 15.7305C243.568 13.9844 241.215 13.0926 238.067 13.0926C237.333 13.0926 236.569 13.1375 235.789 13.22C235.002 13.3099 234.208 13.4298 233.414 13.5872C232.627 13.7445 231.847 13.9394 231.091 14.1567C230.536 14.3216 230.004 14.494 229.502 14.6738L230.469 17.574C230.858 17.4016 231.27 17.2442 231.698 17.1093C232.342 16.8995 233.009 16.7271 233.676 16.5847C234.335 16.4499 234.987 16.345 235.609 16.27C237.4 16.0677 238.794 16.1576 240.001 16.5098C240.803 16.7421 241.492 17.0794 242.069 17.5065C242.654 17.9412 243.126 18.4732 243.456 19.0802C243.785 19.6873 243.988 20.3542 244.04 21.0661L244.108 21.9279L243.276 21.6881C242.017 21.3284 240.773 21.0586 239.589 20.8788C238.405 20.7064 237.266 20.6165 236.201 20.6165C234.778 20.6165 233.519 20.7664 232.462 21.0586C231.428 21.3434 230.551 21.7556 229.869 22.2726C229.202 22.7747 228.7 23.3892 228.363 24.0787C228.033 24.7756 227.861 25.57 227.861 26.4318C227.861 27.2936 228.026 28.0879 228.348 28.8074C228.67 29.5193 229.15 30.1563 229.787 30.6883C230.431 31.2279 231.248 31.6625 232.23 31.9698C233.219 32.2845 234.395 32.4494 235.722 32.4494C236.516 32.4494 237.273 32.3895 237.985 32.2771C238.697 32.1646 239.364 32.0073 239.986 31.8199C240.6 31.6251 241.177 31.4003 241.694 31.1455C242.219 30.8907 242.714 30.6134 243.156 30.3211L244.085 29.7141V32.0897H247.367L247.36 32.1122ZM243.913 26.3943C243.538 26.784 243.073 27.1662 242.519 27.5259C241.972 27.8856 241.357 28.2004 240.69 28.4701C240.023 28.7399 239.296 28.9572 238.532 29.1221C237.76 29.287 236.943 29.3694 236.119 29.3694C235.295 29.3694 234.643 29.2945 234.073 29.1371C233.489 28.9797 232.994 28.7624 232.612 28.4926C232.2 28.2079 231.885 27.8631 231.69 27.4809C231.495 27.0987 231.398 26.6941 231.398 26.2744C231.398 25.8772 231.488 25.495 231.675 25.1278C231.87 24.7456 232.185 24.4159 232.627 24.1536C233.031 23.9063 233.534 23.7265 234.156 23.5841C234.755 23.4492 235.497 23.3818 236.374 23.3818C236.786 23.3818 237.273 23.3967 237.828 23.4342C238.382 23.4717 238.974 23.5316 239.596 23.6141C240.218 23.6965 240.878 23.8164 241.567 23.9663C242.249 24.1162 242.953 24.3035 243.658 24.5208L244.078 24.6482V26.207L243.913 26.3793V26.3943Z" fill="white"/>
<path d="M269.415 35.1847C269.872 33.8583 270.111 32.2621 270.111 30.441V13.4523H266.829V25.8473L266.709 26.0046C266.08 26.8365 265.233 27.5259 264.191 28.058C263.15 28.59 261.936 28.8523 260.594 28.8523C258.623 28.8523 257.147 28.1929 256.21 26.8964C255.303 25.6449 254.861 23.7864 254.861 21.2385V13.4523H251.594V22.6174C251.594 24.1686 251.781 25.555 252.156 26.7465C252.523 27.9156 253.055 28.9123 253.745 29.7066C254.419 30.486 255.266 31.093 256.248 31.4977C257.244 31.9098 258.398 32.1197 259.68 32.1197C260.287 32.1197 260.886 32.0747 261.478 31.9848C262.063 31.8948 262.633 31.76 263.157 31.5951C263.682 31.4302 264.184 31.2204 264.641 30.9881C265.098 30.7558 265.51 30.4935 265.877 30.2087L266.844 29.4668V31.3553C266.844 33.4911 266.215 35.1247 264.971 36.2263C263.749 37.3055 262.011 37.845 259.807 37.845C259.178 37.845 258.533 37.8001 257.896 37.7102C257.252 37.6202 256.615 37.4928 256 37.313C255.378 37.1331 254.779 36.9083 254.202 36.6385C253.865 36.4812 253.535 36.3013 253.228 36.1139L252.029 39.134C253.063 39.6661 254.194 40.1007 255.401 40.4305C256.787 40.8052 258.301 41 259.912 41C261.523 41 263.022 40.7827 264.296 40.348C265.548 39.9283 266.612 39.2764 267.466 38.4296C268.32 37.5753 268.987 36.4886 269.437 35.1847H269.415Z" fill="white"/>
<path d="M128.935 9.9107C128.141 7.96614 126.874 6.0693 125.344 4.61982C123.82 3.15544 121.953 2.00421 119.802 1.19895C117.667 0.402632 115.278 0 112.722 0C110.166 0 107.756 0.402632 105.621 1.19895C103.485 1.99526 101.618 3.14947 100.079 4.61982C98.5404 6.08421 97.3295 7.86474 96.4795 9.89877C95.6295 11.9418 95.197 14.2174 95.197 16.666C95.197 19.1146 95.6295 21.42 96.4795 23.4868C97.3295 25.5477 98.5463 27.3342 100.064 28.8284C101.603 30.3077 103.47 31.4768 105.606 32.303C107.741 33.1172 110.145 33.5347 112.707 33.5347C115.269 33.5347 117.667 33.1172 119.793 32.3179C121.944 31.4888 123.811 30.3196 125.335 28.8433C126.88 27.364 128.099 25.5597 128.949 23.5018C129.799 21.426 130.232 19.1354 130.232 16.6809C130.232 14.3814 129.808 12.0521 128.932 9.9107H128.935ZM122.087 20.7161C121.61 21.8614 120.915 22.9082 120.002 23.7761C119.107 24.6053 118.031 25.2704 116.79 25.7267C115.549 26.183 114.183 26.4246 112.713 26.4246C111.243 26.4246 109.868 26.183 108.612 25.7267C107.386 25.2704 106.313 24.6202 105.4 23.7761C104.52 22.9321 103.81 21.9121 103.309 20.7102C102.823 19.5261 102.555 18.1632 102.555 16.6689C102.555 15.1747 102.808 13.8118 103.309 12.6426C103.81 11.4735 104.526 10.4684 105.4 9.66912C106.304 8.84 107.38 8.20474 108.612 7.77228C109.868 7.33088 111.249 7.10719 112.713 7.10719C114.177 7.10719 115.558 7.33088 116.805 7.77228C118.046 8.19877 119.119 8.84 120.017 9.66912C120.912 10.4804 121.607 11.4735 122.108 12.6575C122.609 13.8267 122.877 15.1896 122.877 16.6839C122.877 18.0647 122.615 19.4486 122.087 20.7161Z" fill="white"/>
<path d="M21.9568 14.1189C24.6381 14.1667 27.6712 17.2684 27.8561 20.0898C27.8561 20.1733 27.8711 20.2688 27.8711 20.3523V20.4358C27.8711 20.6386 27.713 20.7996 27.5281 20.7996H7.52772V32.3268C7.52772 32.7384 7.22053 33.0695 6.83281 33.0695H0.858947C0.262456 33.0754 0 32.5446 0 32.0018C0 31.5305 0.0805263 31.0563 0.172982 30.5851C0.217719 30.3286 0.262456 30.0721 0.292281 29.8186C0.530877 27.9456 0.650175 26.0488 0.748596 24.1668C0.799298 23.114 0.829123 22.0553 0.86193 20.9935V12.5084C0.832105 11.4496 0.802281 10.3968 0.748596 9.33509C0.659123 7.44719 0.530877 5.55632 0.292281 3.68333C0.262456 3.42684 0.217719 3.17035 0.172982 2.91684C0.0835088 2.43667 0 1.96544 0 1.49123C0 0.951403 0.259474 0.417544 0.858947 0.417544H27.5191C27.7219 0.417544 27.886 0.587544 27.886 0.805263V0.897719C27.886 0.960351 27.88 1.02895 27.8711 1.09158C27.7368 4.06509 24.486 7.43825 21.6795 7.45614H7.52772V14.1309L21.9568 14.1219V14.1189Z" fill="white"/>
<path d="M159.463 15.0823C158.887 13.5523 158.04 12.1356 156.871 10.9754C156.859 10.9635 156.847 10.9516 156.835 10.9396C155.723 9.83316 154.363 9.00403 152.839 8.45526C152.392 8.29123 151.92 8.16298 151.443 8.03772C149.272 7.50386 146.835 7.47404 144.351 8.03772C144.157 8.08246 143.963 8.11526 143.769 8.16895C142.693 8.44632 141.565 8.91158 140.408 9.53193V9.05175C140.393 8.53877 140.14 8.05263 139.588 8.03772H134.1C133.644 8.03772 133.444 8.4493 133.444 8.86684C133.444 8.90561 133.444 8.95035 133.45 8.9921C133.471 9.51105 133.599 10.03 133.668 10.54C133.847 11.9805 133.945 13.427 134.02 14.8675C134.109 16.7554 134.148 18.6523 134.148 20.5432C134.148 22.434 134.112 24.3279 134.02 26.2188C133.954 27.6653 133.856 29.1147 133.668 30.5463C133.602 31.0593 133.474 31.5753 133.45 32.0942C133.45 32.133 133.444 32.1777 133.444 32.2165C133.444 32.634 133.647 33.0456 134.1 33.0456H139.561C140.092 33.0456 140.36 32.6132 140.405 32.133V16.7644C140.772 16.4244 141.175 16.1142 141.622 15.8368C142.153 15.4968 142.696 15.2016 143.256 14.9779C143.832 14.7363 144.414 14.5663 145.004 14.4291C146.722 14.0742 148.297 14.2353 149.582 14.7542C150.405 15.0644 151.106 15.5505 151.673 16.1798C152.245 16.7823 152.696 17.5577 153 18.4882C153.322 19.4098 153.486 20.4865 153.486 21.6854V32.0137C153.495 32.47 153.695 32.9203 154.127 33.0277H154.151C154.172 33.0277 154.196 33.0277 154.217 33.0337H159.803C160.221 32.9263 160.423 32.4998 160.438 32.0495V20.7311C160.438 18.8461 160.14 16.8896 159.466 15.0882L159.463 15.0823Z" fill="white"/>
<path d="M97.4249 31.113C96.6405 30.3077 95.4535 28.8225 94.854 27.5609C94.7646 27.376 94.6661 27.1046 94.4663 27.0211C94.353 26.9763 94.2337 26.9823 94.1233 27.0211C93.9295 27.0837 93.7416 27.1463 93.5567 27.2C93.0705 27.3461 92.5933 27.4714 92.0177 27.6026C88.7698 28.3453 84.663 27.8114 81.8535 25.837C77.9853 23.1289 79.7479 18.9714 78.2686 15.0912C77.8361 13.937 77.2605 12.917 76.5805 12.0253C76.2912 11.6375 75.984 11.2647 75.647 10.9426C74.5346 9.83614 73.1746 9.00702 71.6505 8.45825C70.1414 7.89456 68.4832 7.61421 66.7205 7.61421C65.3844 7.61421 63.9856 7.80807 62.5779 8.17789C61.5012 8.45526 60.3739 8.92053 59.2077 9.54088V9.15316C59.2077 8.61333 58.9453 8.07649 58.3488 8.07649H52.9326C52.7 8.07649 52.5151 8.20175 52.3868 8.36877C52.3809 8.38368 52.366 8.3986 52.357 8.41351C52.3272 8.45825 52.3063 8.50597 52.2825 8.55368C52.2168 8.69982 52.1632 8.85491 52.1482 9.02491C52.1542 9.25754 52.193 9.49614 52.2288 9.73772C52.2735 10.0151 52.3242 10.3014 52.363 10.5728C52.5419 12.0133 52.6404 13.4598 52.7149 14.9093C52.8044 16.8061 52.8432 18.694 52.8432 20.5909C52.8432 21.6586 52.8282 22.7263 52.7984 23.7881L52.6195 23.9819L52.2318 24.3368C51.9425 24.6291 51.5905 24.9244 51.1998 25.1958C50.7137 25.5358 50.1917 25.8311 49.637 26.0697C49.0912 26.3112 48.4947 26.4872 47.8654 26.6333C47.2689 26.7646 46.6486 26.8421 46.064 26.8421C44.7935 26.8421 43.7347 26.6781 42.8967 26.3679C42.1123 26.0577 41.4711 25.6163 40.9998 25.0675C40.5375 24.5188 40.2095 23.8507 40.0067 23.0842C39.7979 22.2551 39.6846 21.3096 39.6846 20.2896V9.14123C39.6846 8.6014 39.4161 8.07351 38.8256 8.07351H33.5825C32.9919 8.07351 32.7235 8.60737 32.7235 9.15018V21.1426C32.7235 23.0544 32.9472 24.7961 33.3946 26.3053C33.8568 27.8472 34.5816 29.1774 35.5747 30.26C36.5828 31.3277 37.8682 32.1419 39.4132 32.6996C40.9372 33.2484 42.7684 33.5109 44.874 33.5109C46.1714 33.5109 47.5553 33.317 48.9809 32.9293C50.0546 32.637 51.1402 32.1926 52.2139 31.614C52.184 31.7989 52.1542 31.9779 52.1482 32.1628C52.184 32.6519 52.4405 33.0993 52.9625 33.1142H58.4889C58.8767 33.1142 59.1839 32.7891 59.1839 32.3716V16.8032C59.5507 16.4632 59.9533 16.153 60.3858 15.8816C60.9167 15.5267 61.4595 15.2463 62.0202 15.0226C62.6018 14.7811 63.1923 14.6051 63.7768 14.4739C64.3584 14.3575 64.9489 14.28 65.5096 14.28C66.5565 14.28 67.5198 14.4589 68.34 14.784C69.1751 15.1091 69.8789 15.5803 70.4307 16.2096C71.0123 16.83 71.4626 17.6025 71.7519 18.5181C72.423 20.5312 72.1188 22.6756 72.6854 24.7186C73.8874 28.9537 77.1502 31.6618 81.0035 32.9621C82.9153 33.6123 85.164 33.9374 87.6723 33.9374C90.9888 33.9374 94.4663 33.496 97.3951 31.8407C97.7232 31.6558 97.6725 31.3754 97.3951 31.0921L97.41 31.116L97.4249 31.113Z" fill="white"/>
<path d="M191.855 21.6496C191.826 21.0353 191.766 20.4209 191.671 19.8125C191.608 19.4158 191.527 19.0251 191.432 18.6344C191.336 18.2437 191.223 17.8679 191.092 17.4951C191.026 17.3102 190.958 17.1282 190.886 16.9463V16.9165C190.245 15.2911 189.296 13.8505 188.077 12.6516C186.86 11.4526 185.366 10.5072 183.639 9.82421C181.921 9.12632 179.949 8.78631 177.79 8.78631C175.631 8.78631 173.659 9.12632 171.945 9.8093C170.242 10.4893 168.777 11.4049 167.605 12.5651C166.418 13.7044 165.499 15.0495 164.873 16.5586C164.247 18.0528 163.925 19.6395 163.925 21.2798C163.925 23.0454 164.262 24.7156 164.918 26.2367C165.574 27.7786 166.576 29.1237 167.874 30.263C169.174 31.3844 170.793 32.291 172.72 32.9412C174.632 33.5914 176.881 33.9165 179.389 33.9165C180.382 33.9165 181.33 33.8718 182.213 33.7853C183.117 33.7018 183.985 33.5437 184.796 33.3737C185.619 33.1947 186.415 32.9561 187.173 32.6758C187.671 32.4909 188.166 32.2821 188.658 32.0554C188.912 31.9391 189.165 31.8228 189.422 31.7005C189.75 31.5454 190.078 31.3904 190.4 31.2054C190.719 31.0265 190.662 30.7551 190.4 30.4837C189.645 29.7082 188.494 28.2767 187.919 27.0628C187.853 26.9167 187.793 26.7586 187.677 26.6423C187.456 26.4216 187.149 26.5439 186.902 26.6363C186.359 26.8391 185.789 27.024 185.214 27.1851C184.704 27.3312 184.191 27.4714 183.669 27.5967C181.181 28.1454 178.53 28.1156 176.493 27.6742C175.476 27.4326 174.566 27.1105 173.782 26.7139C173.012 26.3112 172.371 25.8251 171.87 25.2823C171.503 24.8796 171.214 24.4382 170.99 23.9819H191.05C191.778 23.9819 191.882 23.1588 191.879 22.5981C191.879 22.2819 191.87 21.9658 191.855 21.6496ZM170.981 18.5867C171.16 18.184 171.378 17.8023 171.667 17.4325C172.07 16.9135 172.601 16.4423 173.212 16.0247C173.838 15.6221 174.563 15.2821 175.407 15.0495C176.23 14.8079 177.176 14.6767 178.199 14.6767C179.147 14.6767 180.042 14.793 180.835 15.0167C181.629 15.2582 182.329 15.5654 182.929 15.977C183.511 16.3647 184.018 16.836 184.408 17.3698C184.698 17.7575 184.939 18.1512 185.103 18.5867H170.981Z" fill="white"/>
</svg>
