<svg width="157" height="285" viewBox="0 0 157 285" fill="none" xmlns="http://www.w3.org/2000/svg">
<path d="M16.8814 67.9553L10.6704 32.4951L104.261 16.1025C105.07 15.9608 105.695 16.8006 105.328 17.535L96.5244 35.1275C96.3275 35.5209 96.4108 35.9967 96.7297 36.2998L110.988 49.8529C111.584 50.4187 111.281 51.421 110.472 51.5627L16.8814 67.9553Z" fill="#CDCDCD"/>
<path d="M74.0901 34.1249L77.9609 33.4469L80.9059 36.8571L82.5165 32.649L86.3642 31.975L83.1262 39.2998L83.9538 44.0247L80.4601 44.6366L79.6325 39.9117L74.0901 34.1249Z" fill="#F3F3F3"/>
<path d="M64.9848 47.3472L63.0088 36.0658L68.8188 35.0482C69.8961 34.8595 70.7357 34.8076 71.3375 34.8925C71.9393 34.9775 72.4587 35.2408 72.8956 35.6824C73.3316 36.119 73.6125 36.6963 73.7383 37.4146C73.848 38.0405 73.8094 38.6051 73.6226 39.1084C73.4349 39.6066 73.1323 40.0376 72.7149 40.4016C72.4488 40.6332 72.067 40.8535 71.5695 41.0622C72.0093 41.1279 72.3362 41.2134 72.5503 41.3187C72.6947 41.3886 72.914 41.5538 73.2082 41.8142C73.5074 42.0738 73.7125 42.2784 73.8233 42.4282L76.0815 45.4036L72.1414 46.0937L69.6753 42.9723C69.3612 42.5673 69.1 42.3143 68.892 42.2133C68.6101 42.0829 68.3101 42.0455 67.992 42.1012L67.6842 42.1552L68.4861 46.7339L64.9848 47.3472ZM67.3108 40.0236L68.7806 39.7661C68.9397 39.7383 69.2385 39.633 69.6771 39.4505C69.8999 39.3639 70.0665 39.2131 70.1769 38.9981C70.2924 38.7822 70.3286 38.5511 70.2855 38.3049C70.2217 37.9406 70.0573 37.6813 69.7923 37.5267C69.5272 37.3722 69.0767 37.3507 68.4405 37.4621L66.9091 37.7303L67.3108 40.0236Z" fill="#F3F3F3"/>
<path d="M52.7184 49.4957L50.7424 38.2143L56.5524 37.1966C57.6297 37.0079 58.4693 36.9561 59.0711 37.041C59.6729 37.126 60.1923 37.3893 60.6292 37.8309C61.0652 38.2675 61.3461 38.8448 61.4719 39.5631C61.5816 40.189 61.543 40.7536 61.3562 41.2569C61.1685 41.7551 60.8659 42.1861 60.4485 42.5501C60.1824 42.7817 59.8006 43.0019 59.3031 43.2107C59.7429 43.2764 60.0699 43.3619 60.2839 43.4672C60.4284 43.5371 60.6476 43.7022 60.9418 43.9627C61.241 44.2222 61.4461 44.4269 61.5569 44.5767L63.8151 47.552L59.875 48.2422L57.4089 45.1208C57.0948 44.7158 56.8337 44.4628 56.6256 44.3618C56.3437 44.2314 56.0437 44.194 55.7256 44.2497L55.4178 44.3036L56.2198 48.8824L52.7184 49.4957ZM55.0444 42.172L56.5142 41.9146C56.6733 41.8867 56.9721 41.7815 57.4107 41.5989C57.6335 41.5123 57.8001 41.3615 57.9105 41.1466C58.026 40.9307 58.0622 40.6996 58.0191 40.4534C57.9553 40.0891 57.7909 39.8297 57.5259 39.6752C57.2609 39.5207 56.8103 39.4992 56.1741 39.6106L54.6428 39.8788L55.0444 42.172Z" fill="#F3F3F3"/>
<path d="M38.1187 46.247C37.7961 44.4053 38.0579 42.8815 38.9043 41.6758C39.7506 40.47 41.0895 39.7067 42.921 39.3859C44.7987 39.057 46.3339 39.309 47.5267 40.1417C48.7186 40.9693 49.4736 42.2912 49.7917 44.1073C50.0227 45.4258 49.9891 46.5473 49.691 47.472C49.3972 48.3906 48.8709 49.1596 48.1122 49.779C47.3578 50.3923 46.3547 50.8086 45.1029 51.0278C43.8306 51.2507 42.7408 51.2327 41.8336 50.9739C40.9315 50.7141 40.1446 50.191 39.4728 49.4045C38.801 48.618 38.3496 47.5655 38.1187 46.247ZM41.6073 45.6518C41.8068 46.7907 42.1605 47.5722 42.6683 47.9961C43.1813 48.4192 43.802 48.5669 44.5305 48.4393C45.2795 48.3081 45.8166 47.9629 46.1416 47.4036C46.4667 46.8444 46.5187 45.9337 46.2976 44.6717C46.1116 43.6097 45.7605 42.8728 45.2442 42.4609C44.7321 42.043 44.1093 41.8983 43.3756 42.0268C42.6728 42.1499 42.152 42.4975 41.8134 43.0698C41.4748 43.642 41.4061 44.5027 41.6073 45.6518Z" fill="#F3F3F3"/>
<path d="M26.8932 50.1723L30.1735 49.3836C30.3396 49.9097 30.5577 50.2945 30.8278 50.538C31.2668 50.9317 31.8199 51.0701 32.4868 50.9533C32.9844 50.8661 33.3464 50.6838 33.5727 50.4062C33.8033 50.1226 33.8916 49.8268 33.8377 49.519C33.7865 49.2266 33.6124 48.9874 33.3155 48.8015C33.0185 48.6156 32.3852 48.5018 31.4156 48.4601C29.8266 48.3841 28.6564 48.1185 27.9051 47.6632C27.1487 47.2087 26.6932 46.5403 26.5387 45.6579C26.4372 45.0782 26.5082 44.5026 26.7518 43.9312C26.9996 43.3537 27.434 42.8599 28.0548 42.4498C28.6799 42.0336 29.5798 41.7227 30.7547 41.5169C32.1963 41.2644 33.3413 41.3414 34.1898 41.748C35.0425 42.1486 35.6431 42.9211 35.9917 44.0656L32.7395 44.8336C32.5633 44.341 32.3139 44.0039 31.9913 43.8225C31.6738 43.6401 31.2688 43.5921 30.7763 43.6784C30.371 43.7494 30.0811 43.89 29.9064 44.1004C29.7309 44.3056 29.6646 44.5314 29.7078 44.7776C29.7392 44.9572 29.8522 45.104 30.0466 45.218C30.2369 45.338 30.651 45.4082 31.2891 45.4286C32.8703 45.4901 34.0189 45.6326 34.7349 45.8562C35.4551 46.0738 36.0075 46.4053 36.3923 46.8508C36.7821 47.2954 37.0309 47.8255 37.1388 48.4412C37.2655 49.1645 37.1822 49.8665 36.889 50.5471C36.5957 51.2277 36.1179 51.7899 35.4553 52.2338C34.7919 52.6725 33.9138 52.9876 32.8211 53.179C30.9024 53.5151 29.509 53.3784 28.6408 52.7691C27.7727 52.1597 27.1901 51.2941 26.8932 50.1723Z" fill="#F3F3F3"/>
<path d="M32.5451 163.181L7.61513 20.8476C7.51984 20.3036 7.8836 19.7853 8.42761 19.69C8.97161 19.5948 9.48985 19.9585 9.58514 20.5025L34.5151 162.836C34.6104 163.38 34.2467 163.898 33.7027 163.993C33.1586 164.089 32.6404 163.725 32.5451 163.181Z" fill="#B5B5B5"/>
<circle cx="8.94519" cy="22.645" r="6" transform="rotate(-9.93471 8.94519 22.645)" fill="#DBDBDB"/>
<path d="M12.0499 27.1911C12.5285 26.9153 13.1401 27.0798 13.4158 27.5583C13.6915 28.0369 13.5271 28.6485 13.0485 28.9242C11.9899 29.5342 11.0827 29.8441 10.2153 29.9468C9.35517 30.0486 8.60209 29.9364 7.90211 29.8048C7.35941 29.7027 7.00235 29.1806 7.10428 28.638C7.20634 28.0953 7.72843 27.7382 8.27112 27.8401C8.92172 27.9625 9.43147 28.0261 9.98046 27.9611C10.5223 27.8969 11.1711 27.6974 12.0499 27.1911Z" fill="#C3C3C3"/>
<path d="M51.5877 171.5C56.3877 176.7 64.921 179.666 68.5877 180.5C82.1877 190.9 70.921 197.833 63.5876 200C60.421 198.833 51.9877 195.3 43.5877 190.5C35.1877 185.7 30.0877 175.833 28.5877 171.5C24.5877 165.5 22.5877 154.5 31.0877 149C39.5877 143.5 43.0877 150 43.5877 153.5C44.0877 157 45.5877 165 51.5877 171.5Z" fill="#E3E3E3"/>
<path d="M51.5877 171.488C56.7556 176.322 64.921 179.654 68.5877 180.488C57.5879 178.986 53.5879 191.401 54.0879 195.986C54.0879 195.986 45.5877 191.985 42.088 189.486C40.6865 188.485 40.5876 182.5 43.5877 178C46.5876 174 51.3945 171.307 51.5877 171.488Z" fill="#C9C9C9"/>
<path d="M31.0877 149C39.5877 143.5 43.0877 150 43.5877 153.5C44.8734 162.5 38.5876 172 28.5877 171.5C24.5877 165.5 22.5877 154.5 31.0877 149Z" fill="#C3C3C3"/>
<path opacity="0.5" d="M65.0876 191C70.0876 186 68.921 183.5 70.0876 181L77.0876 183L66.0876 201L54.0876 196C56.2543 195.666 62.8073 193.28 65.0876 191Z" fill="#D3D3D3"/>
<path d="M57.59 206.5L71.59 186.5L124.59 194C123.757 196.333 121.89 203.6 121.09 214C120.09 227 112.588 249 95.0876 252C77.5876 255 66.59 242.5 61.59 235C57.59 229 51.09 227.5 48.09 227.5C46.784 227.5 41.7462 228.216 39.0903 230C35.6454 232.313 34.5019 235.886 33.09 236.5C27.3402 239 14.0882 235 8.08819 230C2.08823 226 -0.535326 221 0.0902111 216C0.471817 212.949 2.62627 211.12 7.58766 210.5C11.5877 210 16.0877 211 21.0877 213.5C21.0877 207.5 24.745 202.879 28.5877 201C33.5057 198.595 40.9089 200.192 43.7578 200.889C47.6373 201.838 52.9013 204.516 57.59 206.5Z" fill="#E3E3E3"/>
<path opacity="0.5" d="M111.588 203C98.3876 202.2 89.7543 197.333 87.0876 195C95.8876 196.6 120.088 195 131.088 194L111.588 237.5L94.5876 234C111.588 230.5 114.388 203 111.588 203Z" fill="#D3D3D3"/>
<path opacity="0.5" d="M55.0876 229.5C57.0876 217.9 54.2543 208 52.5876 204.5L59.0876 206.5C60.7543 209.5 65.4876 216.9 71.0876 222.5C76.6876 228.1 103.254 234.5 113.588 238C112.754 239.166 109.027 248.081 98.0876 251.5C90.0876 254 67.0876 244.5 64.0876 238C61.6876 232.8 57.0876 230.166 55.0876 229.5Z" fill="#D3D3D3"/>
<path d="M57.1394 201.154C58.7112 200.631 60.4094 201.48 60.9334 203.052C61.7213 205.416 62.3549 207.776 64.1863 210.72C66.0101 213.652 69.1061 217.264 74.8875 221.6C80.5062 225.814 88.1088 229.067 95.2341 231.47C102.318 233.858 110.978 234.243 114.088 235C115.698 235.391 116.479 237.39 116.088 239C115.001 242.259 110.206 241.827 107.588 241.5C104.087 240.639 98.8469 239.02 93.3162 237.155C85.9834 234.683 77.6689 231.186 71.2878 226.4C65.0407 221.715 61.3855 217.576 59.0916 213.889C56.8055 210.214 55.9539 207.084 55.2419 204.948C54.7182 203.377 55.5677 201.678 57.1394 201.154Z" fill="#B5B5B5"/>
<ellipse cx="74.0207" cy="201.742" rx="5.80324" ry="6.71039" transform="rotate(31.0521 74.0207 201.742)" fill="#F3F3F3"/>
<ellipse cx="73.8602" cy="201.488" rx="3.60351" ry="4.23682" transform="rotate(31.0521 73.8602 201.488)" fill="#C9C9C9"/>
<path d="M131.588 194C123.588 191.2 114.588 202.499 119.088 209.5C122.588 212 123.088 215.5 121.588 217.5C120.088 219.5 115.588 218.5 111.588 217.5C94.5877 214.5 93.0877 228.5 98.5877 231C104.088 233.5 111.588 237 126.088 238C140.588 239 147.588 228 148.088 220.5C148.588 213 141.588 197.5 131.588 194Z" fill="#E3E3E3"/>
<path d="M126.088 237.999C140.588 238.999 147.588 227.999 148.088 220.499C148.24 218.217 147.698 215.194 146.588 211.994C134.088 206 125.088 210.5 121.588 217.499C119.634 221.406 124.588 237.896 126.088 237.999Z" fill="#C9C9C9"/>
<path d="M92.0876 215.998C89.0876 222.498 91.5876 226.998 96.0876 229.998C97.8816 231.194 101.186 232.708 105.588 234.065C110.509 232.879 114.832 225.501 111.588 217.999C110.547 215.592 108.852 213.956 105.588 211.998C100.588 209 95.0876 209.498 92.0876 215.998Z" fill="#C3C3C3"/>
<path d="M66.5494 181.798C67.7652 180.673 69.663 180.746 70.7887 181.961C72.5347 183.847 76.5649 186.783 81.7213 189.462C86.8348 192.12 92.6956 194.336 97.9752 195.025C103.489 195.744 109.638 195.912 115.588 194.787C121.508 193.666 127.068 190.575 130.088 189.462C131.642 188.89 133.515 189.945 134.088 191.5C134.66 193.054 133.236 195.406 132.125 195.815C128.811 197.036 123.852 199.789 117.588 200.974C111.352 202.154 103.611 201.81 97.1998 200.974C90.9796 200.163 84.4234 197.629 78.9537 194.787C73.527 191.966 68.807 188.652 66.3864 186.038C65.2607 184.822 65.3337 182.924 66.5494 181.798Z" fill="#B5B5B5"/>
<ellipse cx="106.088" cy="145" rx="50.5" ry="51" fill="#E3E3E3"/>
<ellipse cx="100.588" cy="146" rx="47" ry="48" fill="#C3C3C3"/>
<circle cx="99.5876" cy="146" r="45" fill="#CDCDCD"/>
<ellipse cx="127.088" cy="131" rx="6.5" ry="7" transform="rotate(-6.46165 127.088 131)" fill="white"/>
<circle cx="132.088" cy="146.5" r="3.5" fill="white"/>
<path d="M87.3924 117.47L86.4316 115.356C85.9682 114.337 84.7602 113.895 83.7843 114.444C79.4625 116.876 72.3925 121.928 68.5877 128.5C64.5702 135.439 63.8597 142.628 64.0202 146.11C64.0437 146.619 64.4732 147 64.9827 147H65.8802C66.3041 147 66.6805 146.734 66.8285 146.337C68.0023 143.188 70.7429 136.831 74.0877 132C77.2357 127.453 83.162 122.574 86.7178 119.972C87.5018 119.398 87.7944 118.355 87.3924 117.47Z" fill="white"/>
<path d="M102.227 110.888C97.9393 110.389 94.2465 110.802 92.1881 111.228C91.5982 111.351 91.3041 111.986 91.5488 112.537L92.73 115.195C92.9344 115.655 93.449 115.891 93.9312 115.747L102.375 113.213C102.798 113.087 103.088 112.697 103.088 112.256V111.867C103.088 111.369 102.721 110.945 102.227 110.888Z" fill="white"/>
<path d="M59.0876 234C64.6876 229.6 79.7543 230.167 86.5876 231C92.5876 231.484 109.088 242 99.0876 251.5C89.0876 261 79.0876 254.5 76.0876 256C73.0876 257.5 75.5876 261 76.0876 266C76.5876 271 70.0876 278 65.5876 281C61.0876 284 45.0877 288 41.5877 278C38.7877 270 49.0876 264.333 54.5876 262.5C45.0876 252 49.0877 240.5 59.0876 234Z" fill="#E3E3E3"/>
<path d="M50.5821 243.501C54.0169 235.745 59.5877 231.5 69.5859 230.764C80.4669 237.826 84.5877 253 80.5877 256.001C80.1878 256.302 76.6357 255.727 76.0859 256.001C75.536 256.276 75.0876 257 74.5876 258C63.8993 260.495 49.2366 251.594 50.5821 243.501Z" fill="#C9C9C9"/>
<path d="M48.0876 227.5C50.4876 211.5 42.421 202.5 38.0876 200C36.7543 199.5 32.9876 199 28.5876 201C24.1876 203 21.0876 208 21.0876 212.5C30.2876 215.3 35.7543 225.666 37.0876 232C37.5876 231.5 39.3807 230.082 42.0876 229C44.5876 228 46.5876 227.5 48.0876 227.5Z" fill="#C9C9C9"/>
</svg>
