<svg width="130" height="115" viewBox="0 0 130 115" fill="none" xmlns="http://www.w3.org/2000/svg">
<g clip-path="url(#clip0_3690_10018)">
<path d="M1.57585 34.6867C0.130191 28.2188 4.20146 21.8037 10.6693 20.358L65.3208 8.14264C71.7886 6.69698 78.2037 10.7683 79.6494 17.2361L95.1368 86.5263C96.5824 92.9942 92.5112 99.4093 86.0433 100.855L31.3919 113.07C24.924 114.516 18.5089 110.445 17.0632 103.977L1.57585 34.6867Z" fill="#EDEDED"/>
<path d="M40.561 10.6996C41.168 4.1 47.0102 -0.757876 53.6097 -0.15081L100.997 4.20811C104.132 4.49652 107.028 6.00559 109.061 8.40993L122.115 23.8492C124.192 26.3056 125.195 29.493 124.901 32.6961L119.238 94.2576C118.631 100.857 112.789 105.715 106.189 105.108L44.4498 99.4288C37.8502 98.8217 32.9924 92.9796 33.5994 86.38L40.561 10.6996Z" fill="white"/>
<path fill-rule="evenodd" clip-rule="evenodd" d="M124.724 34.6199L122.732 34.4367L122.909 32.5129C122.97 31.8487 122.964 31.1855 122.894 30.5323L124.883 30.3193C124.967 31.1033 124.974 31.8992 124.901 32.6961L124.724 34.6199ZM123.462 25.8073L121.71 26.7722C121.393 26.1968 121.018 25.6499 120.587 25.1405L119.5 23.8539L121.027 22.5626L122.115 23.8492C122.631 24.4604 123.082 25.1167 123.462 25.8073ZM118.851 19.9894L117.324 21.2807L115.148 18.7075L116.676 17.4162L118.851 19.9894ZM114.5 14.843L112.973 16.1343L110.797 13.561L112.325 12.2698L114.5 14.843ZM110.149 9.69654L108.622 10.9878L107.534 9.70122C107.112 9.20255 106.646 8.75021 106.144 8.34825L107.393 6.78636C107.996 7.26877 108.555 7.81163 109.061 8.40993L110.149 9.69654ZM55.5842 0.0308116L55.401 2.0224L53.4265 1.84078C52.7589 1.77937 52.1026 1.78497 51.4635 1.8514L51.2567 -0.137882C52.0247 -0.217716 52.8117 -0.22422 53.6097 -0.15081L55.5842 0.0308116ZM46.7852 1.25118L47.7409 3.00805C46.5872 3.63567 45.565 4.48567 44.7374 5.50553L43.1844 4.24534C44.1767 3.02247 45.4018 2.00373 46.7852 1.25118ZM33.7735 84.488L35.7651 84.6712L35.591 86.5632C35.5296 87.2308 35.5352 87.8872 35.6016 88.5263L33.6124 88.7331C33.5325 87.9651 33.526 87.1781 33.5994 86.38L33.7735 84.488ZM35.0014 93.2045L36.7583 92.2488C37.3859 93.4025 38.2359 94.4248 39.2558 95.2523L37.9956 96.8053C36.7727 95.8131 35.754 94.5879 35.0014 93.2045ZM104.26 104.93L104.443 102.939L106.372 103.116C107.04 103.178 107.696 103.172 108.335 103.106L108.542 105.095C107.774 105.175 106.987 105.181 106.189 105.108L104.26 104.93ZM113.014 103.706L112.058 101.949C113.212 101.321 114.234 100.471 115.061 99.4516L116.614 100.712C115.622 101.935 114.397 102.953 113.014 103.706ZM124.37 38.4675L122.378 38.2843L122.024 42.1319L124.016 42.3151L124.37 38.4675ZM123.662 46.1627L121.67 45.9795L121.316 49.8271L123.308 50.0103L123.662 46.1627ZM122.954 53.8579L120.962 53.6747L120.609 57.5223L122.6 57.7055L122.954 53.8579ZM122.246 61.5531L120.255 61.3699L119.901 65.2175L121.892 65.4007L122.246 61.5531ZM121.538 69.2482L119.547 69.065L119.193 72.9126L121.184 73.0958L121.538 69.2482ZM120.831 76.9434L118.839 76.7602L118.485 80.6078L120.477 80.791L120.831 76.9434ZM120.123 84.6386L118.131 84.4554L117.777 88.303L119.769 88.4862L120.123 84.6386ZM119.415 92.3338L117.423 92.1506L117.246 94.0744C117.185 94.742 117.06 95.3863 116.878 96.0025L118.796 96.5687C119.015 95.8282 119.164 95.0556 119.238 94.2576L119.415 92.3338ZM100.401 104.576L100.584 102.584L96.7256 102.229L96.5424 104.221L100.401 104.576ZM92.6837 103.866L92.8669 101.874L89.0082 101.519L88.825 103.511L92.6837 103.866ZM84.9662 103.156L85.1494 101.164L81.2907 100.809L81.1075 102.801L84.9662 103.156ZM77.2488 102.446L77.432 100.454L73.5733 100.099L73.3901 102.091L77.2488 102.446ZM69.5314 101.736L69.7146 99.7443L65.8559 99.3894L65.6727 101.381L69.5314 101.736ZM61.814 101.026L61.9972 99.0345L58.1385 98.6795L57.9553 100.671L61.814 101.026ZM54.0966 100.316L54.2798 98.3246L50.4211 97.9696L50.2379 99.9612L54.0966 100.316ZM46.3791 99.6063L46.5623 97.6147L44.633 97.4372C43.9654 97.3758 43.3211 97.2505 42.7048 97.0686L42.1386 98.9868C42.8792 99.2054 43.6517 99.3554 44.4498 99.4288L46.3791 99.6063ZM34.1215 80.704L36.1131 80.8872L36.4612 77.1032L34.4696 76.92L34.1215 80.704ZM34.8177 73.136L36.8093 73.3192L37.1574 69.5351L35.1658 69.3519L34.8177 73.136ZM35.5139 65.5679L37.5054 65.7511L37.8535 61.9671L35.8619 61.7839L35.5139 65.5679ZM36.21 57.9999L38.2016 58.1831L38.5497 54.399L36.5581 54.2158L36.21 57.9999ZM36.9062 50.4318L38.8978 50.615L39.2458 46.831L37.2542 46.6478L36.9062 50.4318ZM37.6023 42.8638L39.5939 43.047L39.942 39.2629L37.9504 39.0797L37.6023 42.8638ZM38.2985 35.2957L40.2901 35.4789L40.6381 31.6949L38.6465 31.5117L38.2985 35.2957ZM38.9946 27.7277L40.9862 27.9109L41.3343 24.1268L39.3427 23.9436L38.9946 27.7277ZM39.6908 20.1596L41.6824 20.3428L42.0304 16.5588L40.0389 16.3756L39.6908 20.1596ZM40.3869 12.5916L42.3785 12.7748L42.5526 10.8827C42.614 10.2152 42.7392 9.57083 42.9211 8.9546L41.0029 8.38838C40.7843 9.12891 40.6344 9.9015 40.561 10.6996L40.3869 12.5916ZM59.5331 0.394055L59.3499 2.38565L63.2988 2.74889L63.482 0.757299L59.5331 0.394055ZM67.4309 1.12054L67.2477 3.11213L71.1966 3.47538L71.3798 1.48379L67.4309 1.12054ZM75.3287 1.84703L75.1455 3.83862L79.0944 4.20187L79.2776 2.21027L75.3287 1.84703ZM83.2265 2.57352L83.0433 4.56511L86.9922 4.92835L87.1754 2.93676L83.2265 2.57352ZM91.1243 3.3L90.9411 5.2916L94.8901 5.65484L95.0732 3.66325L91.1243 3.3ZM99.0222 4.02649L98.839 6.01808L100.813 6.19971C101.464 6.25952 102.101 6.38232 102.719 6.5639L103.283 4.64516C102.542 4.42723 101.777 4.27988 100.997 4.20811L99.0222 4.02649Z" fill="#E2E2E2"/>
<path d="M84.6074 39.2667C86.9111 39.6774 88.682 40.6149 89.8721 42.1435C91.0686 43.6367 91.4741 45.4643 91.0886 47.6262C90.7726 49.3983 90.0528 50.7692 89 51.7516C88.6178 52.0492 87.4194 52.8228 85.4528 54.008C84.7264 54.3904 84.1582 54.9108 83.7255 55.4918C83.2447 56.1374 82.9285 56.8855 82.7768 57.7361L82.6883 58.2323L78.6126 57.5056L78.7011 57.0094C78.9412 55.6626 79.3624 54.531 80.0292 53.6626C80.6606 52.7878 82.3082 51.5457 84.9784 49.9009L85.4922 49.4806C86.2691 48.8146 86.7398 48.0209 86.8978 47.1349C87.1063 45.9654 86.9162 44.9807 86.3983 44.1936C85.845 43.4001 84.945 42.9105 83.74 42.6957C82.216 42.4239 81.0352 42.6888 80.1558 43.5193C79.4079 44.227 78.9159 45.346 78.6441 46.8699L74.6038 46.1495C75.0715 43.5269 76.1823 41.604 78.0071 40.3936C79.7965 39.1768 81.9848 38.799 84.6074 39.2667ZM80.3231 59.6024C81.1028 59.7414 81.732 60.1096 82.1751 60.7005C82.5828 61.2852 82.7526 61.9737 82.6135 62.7534C82.4745 63.5331 82.0709 64.1559 81.4863 64.5636C80.8307 64.9587 80.1486 65.093 79.3689 64.954C78.5892 64.8149 78.0018 64.4177 77.5941 63.833C77.1155 63.2357 76.9812 62.5536 77.1202 61.7739C77.2592 60.9942 77.6211 60.4005 78.2766 60.0054C78.8612 59.5977 79.5434 59.4634 80.3231 59.6024Z" fill="#E2E2E2"/>
<path fill-rule="evenodd" clip-rule="evenodd" d="M103.984 77.1278C117.146 65.6877 119.598 45.879 109.155 31.5055C98.1183 16.3141 76.8558 12.9463 61.6642 23.9836C46.4726 35.021 43.1051 56.2835 54.1423 71.4749C64.5853 85.8484 84.1824 89.6371 99.1298 80.6545L120.367 109.885L125.221 106.358L103.984 77.1278ZM104.301 35.0322C113.391 47.5428 110.617 65.0533 98.1069 74.1427C85.5964 83.2321 68.0859 80.4587 58.9964 67.9482C49.907 55.4377 52.6804 37.9272 65.1909 28.8377C77.7015 19.7483 95.212 22.5217 104.301 35.0322Z" fill="#DDDDDD"/>
<path d="M103.275 88.439C102.625 87.5453 102.824 86.2946 103.717 85.6454L106.953 83.2942C107.847 82.645 109.098 82.8431 109.747 83.7367L126.793 107.198C128.091 108.985 127.695 111.487 125.908 112.785C124.12 114.084 121.619 113.688 120.32 111.9L103.275 88.439Z" fill="#CCCCCC"/>
</g>
<defs>
<clipPath id="clip0_3690_10018">
<rect width="130" height="115" fill="white"/>
</clipPath>
</defs>
</svg>
