<svg width="20" height="20" viewBox="0 0 20 20" fill="none" xmlns="http://www.w3.org/2000/svg">
<path d="M4.99996 16.6667C4.76385 16.6667 4.56593 16.5869 4.40621 16.4272C4.24649 16.2674 4.16663 16.0695 4.16663 15.8334C4.16663 15.5973 4.24649 15.3994 4.40621 15.2397C4.56593 15.0799 4.76385 15.0001 4.99996 15.0001H15C15.2361 15.0001 15.434 15.0799 15.5937 15.2397C15.7534 15.3994 15.8333 15.5973 15.8333 15.8334C15.8333 16.0695 15.7534 16.2674 15.5937 16.4272C15.434 16.5869 15.2361 16.6667 15 16.6667H4.99996ZM5.58329 13.7501C5.18051 13.7501 4.82288 13.6181 4.51038 13.3542C4.19788 13.0904 4.0069 12.757 3.93746 12.3542L3.10413 7.06258C3.07635 7.06258 3.0451 7.06605 3.01038 7.073C2.97565 7.07994 2.9444 7.08341 2.91663 7.08341C2.5694 7.08341 2.27426 6.96189 2.03121 6.71883C1.78815 6.47578 1.66663 6.18064 1.66663 5.83341C1.66663 5.48619 1.78815 5.19105 2.03121 4.948C2.27426 4.70494 2.5694 4.58341 2.91663 4.58341C3.26385 4.58341 3.55899 4.70494 3.80204 4.948C4.0451 5.19105 4.16663 5.48619 4.16663 5.83341C4.16663 5.93064 4.15621 6.02091 4.13538 6.10425C4.11454 6.18758 4.09024 6.26397 4.06246 6.33341L6.66663 7.50008L9.27079 3.93758C9.11801 3.82647 8.99301 3.68064 8.89579 3.50008C8.79857 3.31953 8.74996 3.12508 8.74996 2.91675C8.74996 2.56953 8.87149 2.27439 9.11454 2.03133C9.3576 1.78828 9.65274 1.66675 9.99996 1.66675C10.3472 1.66675 10.6423 1.78828 10.8854 2.03133C11.1284 2.27439 11.25 2.56953 11.25 2.91675C11.25 3.12508 11.2013 3.31953 11.1041 3.50008C11.0069 3.68064 10.8819 3.82647 10.7291 3.93758L13.3333 7.50008L15.9375 6.33341C15.9097 6.26397 15.8854 6.18758 15.8645 6.10425C15.8437 6.02091 15.8333 5.93064 15.8333 5.83341C15.8333 5.48619 15.9548 5.19105 16.1979 4.948C16.4409 4.70494 16.7361 4.58341 17.0833 4.58341C17.4305 4.58341 17.7257 4.70494 17.9687 4.948C18.2118 5.19105 18.3333 5.48619 18.3333 5.83341C18.3333 6.18064 18.2118 6.47578 17.9687 6.71883C17.7257 6.96189 17.4305 7.08341 17.0833 7.08341C17.0555 7.08341 17.0243 7.07994 16.9895 7.073C16.9548 7.06605 16.9236 7.06258 16.8958 7.06258L16.0625 12.3542C15.993 12.757 15.802 13.0904 15.4895 13.3542C15.177 13.6181 14.8194 13.7501 14.4166 13.7501H5.58329Z" fill="#FFCD39"/>
</svg>
