<svg width="388" height="60" viewBox="0 0 388 60" fill="none" xmlns="http://www.w3.org/2000/svg">
<path d="M322.334 28.1246C322.902 26.5295 323.191 24.7524 323.191 22.8575C323.191 20.8341 322.902 19.0034 322.324 17.3976C321.756 15.8346 320.889 14.4964 319.744 13.4151C318.587 12.3231 317.099 11.4774 315.322 10.8993C313.513 10.2998 311.329 10 308.835 10H291.855V45.8745H297.005V35.8969L308.877 35.9183C311.361 35.9183 313.534 35.5864 315.333 34.9227C317.11 34.2696 318.598 33.3597 319.754 32.2142C320.911 31.0687 321.778 29.6877 322.334 28.1246ZM317.142 26.1655C316.778 27.1932 316.211 28.0818 315.461 28.7991C314.723 29.5163 313.791 30.0731 312.71 30.4585C311.65 30.8332 310.408 31.0259 309.017 31.0259H297.016V14.9353H309.017C311.832 14.9353 313.995 15.6419 315.461 17.0336C316.939 18.436 317.688 20.3952 317.688 22.8575C317.688 24.0565 317.506 25.1699 317.153 26.1655H317.142Z" fill="#CCCCCC"/>
<path d="M353.798 45.8745V34.366C353.798 29.0132 352.696 25.0093 350.522 22.4721C348.381 19.9777 345.02 18.7037 340.523 18.7037C339.474 18.7037 338.382 18.7679 337.269 18.8857C336.145 19.0142 335.01 19.1854 333.875 19.4103C332.751 19.6351 331.638 19.9134 330.556 20.2239C329.764 20.4594 329.004 20.7056 328.287 20.9626L329.668 25.1056C330.224 24.8594 330.813 24.6346 331.423 24.4419C332.344 24.1421 333.297 23.8959 334.25 23.6925C335.192 23.4998 336.123 23.3499 337.012 23.2429C339.57 22.9538 341.562 23.0823 343.285 23.5854C344.431 23.9173 345.416 24.3991 346.24 25.0093C347.075 25.6302 347.75 26.3903 348.221 27.2575C348.692 28.1246 348.981 29.0774 349.056 30.0945L349.152 31.3256L347.964 30.983C346.165 30.4692 344.388 30.0838 342.696 29.8268C341.005 29.5806 339.378 29.4521 337.858 29.4521C335.823 29.4521 334.025 29.6662 332.515 30.0838C331.038 30.4906 329.785 31.0794 328.811 31.8181C327.858 32.5353 327.141 33.4132 326.659 34.3981C326.188 35.3937 325.942 36.5286 325.942 37.7597C325.942 38.9908 326.178 40.1256 326.638 41.1534C327.098 42.1704 327.784 43.0804 328.693 43.8405C329.614 44.6113 330.781 45.2322 332.184 45.6711C333.597 46.1208 335.277 46.3563 337.172 46.3563C338.307 46.3563 339.388 46.2707 340.405 46.1101C341.422 45.9495 342.375 45.7247 343.264 45.457C344.142 45.1787 344.966 44.8575 345.705 44.4935C346.454 44.1295 347.161 43.7334 347.792 43.3159L349.12 42.4487V45.8424H353.809L353.798 45.8745ZM348.874 37.7062C348.338 38.2628 347.675 38.8088 346.882 39.3227C346.101 39.8366 345.223 40.2862 344.27 40.6716C343.317 41.057 342.279 41.3675 341.187 41.603C340.084 41.8385 338.917 41.9563 337.74 41.9563C336.562 41.9563 335.631 41.8492 334.817 41.6244C333.982 41.3996 333.276 41.0891 332.73 40.7037C332.141 40.2969 331.691 39.8045 331.413 39.2585C331.134 38.7125 330.995 38.1344 330.995 37.5349C330.995 36.9675 331.124 36.4215 331.391 35.8969C331.67 35.3509 332.119 34.8799 332.751 34.5052C333.329 34.1519 334.046 33.895 334.935 33.6915C335.791 33.4988 336.851 33.4025 338.104 33.4025C338.693 33.4025 339.388 33.4239 340.181 33.4775C340.973 33.531 341.819 33.6166 342.707 33.7344C343.596 33.8521 344.538 34.0234 345.523 34.2375C346.497 34.4517 347.503 34.7193 348.51 35.0297L349.109 35.2118V37.4385L348.874 37.6848V37.7062Z" fill="#CCCCCC"/>
<path d="M385.305 50.2639C385.958 48.369 386.3 46.0886 386.3 43.4872V19.2176H381.611V36.9247L381.44 37.1495C380.541 38.3378 379.331 39.3227 377.843 40.0828C376.355 40.8429 374.621 41.2176 372.704 41.2176C369.889 41.2176 367.78 40.2755 366.442 38.4234C365.146 36.6356 364.515 33.9806 364.515 30.3407V19.2176H359.847V32.3105C359.847 34.5266 360.114 36.5071 360.65 38.2093C361.174 39.8794 361.934 41.3033 362.919 42.4381C363.883 43.5514 365.093 44.4186 366.495 44.9967C367.919 45.5855 369.568 45.8853 371.398 45.8853C372.265 45.8853 373.122 45.821 373.968 45.6925C374.803 45.5641 375.616 45.3714 376.366 45.1359C377.115 44.9003 377.832 44.6006 378.485 44.2687C379.138 43.9368 379.727 43.5621 380.252 43.1553L381.633 42.0955V44.7933C381.633 47.8444 380.734 50.1782 378.956 51.7519C377.211 53.2935 374.728 54.0643 371.58 54.0643C370.681 54.0643 369.76 54.0001 368.85 53.8716C367.93 53.7432 367.02 53.5612 366.142 53.3043C365.253 53.0473 364.397 52.7262 363.572 52.3408C363.091 52.1159 362.62 51.859 362.181 51.5913L360.468 55.9057C361.945 56.6658 363.562 57.2867 365.285 57.7578C367.266 58.2931 369.428 58.5714 371.73 58.5714C374.032 58.5714 376.173 58.2609 377.993 57.64C379.781 57.0405 381.301 56.1091 382.521 54.8994C383.742 53.6789 384.695 52.1266 385.337 50.2639H385.305Z" fill="#CCCCCC"/>
<path d="M184.62 14.1581C183.487 11.3802 181.676 8.67043 179.49 6.59975C177.313 4.50777 174.646 2.86316 171.574 1.71278C168.523 0.575188 165.11 0 161.459 0C157.808 0 154.365 0.575188 151.314 1.71278C148.264 2.85038 145.597 4.49925 143.398 6.59975C141.2 8.69173 139.47 11.2353 138.256 14.1411C137.041 17.0596 136.423 20.3105 136.423 23.8085C136.423 27.3065 137.041 30.6 138.256 33.5526C139.47 36.4967 141.208 39.0489 143.377 41.1835C145.575 43.2967 148.243 44.9669 151.293 46.1471C154.344 47.3103 157.778 47.9068 161.438 47.9068C165.098 47.9068 168.523 47.3103 171.561 46.1684C174.633 44.984 177.3 43.3138 179.477 41.2048C181.684 39.0915 183.427 36.5138 184.641 33.5739C185.856 30.6085 186.473 27.3363 186.473 23.8298C186.473 20.5449 185.868 17.2173 184.616 14.1581H184.62ZM174.838 29.5945C174.156 31.2306 173.163 32.7261 171.859 33.9659C170.581 35.1504 169.043 36.1005 167.271 36.7524C165.498 37.4043 163.547 37.7494 161.446 37.7494C159.346 37.7494 157.382 37.4043 155.588 36.7524C153.837 36.1005 152.303 35.1717 150.999 33.9659C149.742 32.7602 148.728 31.303 148.012 29.586C147.318 27.8945 146.934 25.9474 146.934 23.8128C146.934 21.6782 147.297 19.7311 148.012 18.0609C148.728 16.3907 149.751 14.9549 150.999 13.813C152.29 12.6286 153.828 11.7211 155.588 11.1033C157.382 10.4727 159.354 10.1531 161.446 10.1531C163.538 10.1531 165.511 10.4727 167.292 11.1033C169.064 11.7125 170.598 12.6286 171.881 13.813C173.159 14.9719 174.152 16.3907 174.867 18.0822C175.583 19.7524 175.967 21.6995 175.967 23.8341C175.967 25.8068 175.592 27.7837 174.838 29.5945Z" fill="#CCCCCC"/>
<path d="M31.7947 20.1699C35.625 20.2381 39.9581 24.6692 40.2222 28.6997C40.2222 28.819 40.2435 28.9554 40.2435 29.0747V29.194C40.2435 29.4837 40.0177 29.7138 39.7536 29.7138H11.1816V46.1812C11.1816 46.7692 10.7428 47.2421 10.1889 47.2421H1.6548C0.802672 47.2506 0.427734 46.4922 0.427734 45.7168C0.427734 45.0436 0.542772 44.3662 0.674852 43.693C0.738762 43.3266 0.802672 42.9602 0.845278 42.598C1.18613 39.9223 1.35656 37.2125 1.49716 34.5241C1.56959 33.0201 1.6122 31.5075 1.65906 29.9907V17.8692C1.61646 16.3566 1.57385 14.8526 1.49716 13.3358C1.36934 10.6388 1.18613 7.93759 0.845278 5.2619C0.802672 4.89549 0.738762 4.52907 0.674852 4.16692C0.547033 3.48095 0.427734 2.80777 0.427734 2.13033C0.427734 1.35915 0.798411 0.596491 1.6548 0.596491H39.7408C40.0305 0.596491 40.2648 0.839348 40.2648 1.15038V1.28246C40.2648 1.37193 40.2563 1.46992 40.2435 1.5594C40.0518 5.80727 35.4077 10.6261 31.3984 10.6516H11.1816V20.187L31.7947 20.1742V20.1699Z" fill="#CCCCCC"/>
<path d="M228.232 21.5461C227.41 19.3604 226.2 17.3366 224.529 15.6792C224.512 15.6622 224.495 15.6451 224.478 15.6281C222.889 14.0474 220.946 12.8629 218.769 12.0789C218.13 11.8446 217.457 11.6614 216.775 11.4825C213.673 10.7198 210.192 10.6772 206.643 11.4825C206.366 11.5464 206.089 11.5932 205.812 11.6699C204.274 12.0662 202.664 12.7308 201.011 13.617V12.9311C200.989 12.1982 200.627 11.5038 199.839 11.4825H191.999C191.348 11.4825 191.062 12.0704 191.062 12.6669C191.062 12.7223 191.062 12.7862 191.071 12.8459C191.1 13.5872 191.284 14.3286 191.382 15.0571C191.637 17.115 191.778 19.1815 191.884 21.2393C192.012 23.9363 192.068 26.6461 192.068 29.3474C192.068 32.0486 192.016 34.7541 191.884 37.4554C191.791 39.5218 191.65 41.5925 191.382 43.6376C191.288 44.3704 191.105 45.1075 191.071 45.8489C191.071 45.9043 191.062 45.9682 191.062 46.0236C191.062 46.62 191.352 47.208 191.999 47.208H199.801C200.559 47.208 200.943 46.5902 201.006 45.9043V23.9491C201.53 23.4634 202.106 23.0203 202.745 22.6241C203.503 22.1383 204.279 21.7165 205.08 21.397C205.902 21.0519 206.733 20.809 207.576 20.613C210.031 20.106 212.28 20.3361 214.116 21.0774C215.292 21.5206 216.294 22.215 217.103 23.114C217.921 23.9747 218.565 25.0825 218.999 26.4118C219.459 27.7283 219.694 29.2664 219.694 30.9792V45.7338C219.706 46.3857 219.992 47.0291 220.61 47.1825H220.644C220.674 47.1825 220.708 47.1825 220.738 47.191H228.718C229.314 47.0376 229.604 46.4283 229.625 45.785V29.6158C229.625 26.9231 229.199 24.1281 228.236 21.5546L228.232 21.5461Z" fill="#CCCCCC"/>
<path d="M139.606 44.4471C138.486 43.2967 136.79 41.1749 135.934 39.3727C135.806 39.1085 135.665 38.7208 135.38 38.6015C135.218 38.5376 135.047 38.5461 134.89 38.6015C134.613 38.691 134.344 38.7804 134.08 38.8571C133.386 39.0659 132.704 39.2449 131.882 39.4323C127.242 40.4932 121.375 39.7306 117.361 36.91C111.835 33.0414 114.353 27.102 112.24 21.5589C111.622 19.91 110.8 18.4529 109.828 17.1789C109.415 16.6251 108.976 16.0925 108.495 15.6323C106.906 14.0516 104.963 12.8672 102.786 12.0832C100.63 11.2779 98.2608 10.8774 95.7428 10.8774C93.834 10.8774 91.8358 11.1544 89.8247 11.6827C88.2866 12.0789 86.6761 12.7436 85.0102 13.6298V13.0759C85.0102 12.3048 84.6353 11.5378 83.7831 11.5378H76.0458C75.7134 11.5378 75.4493 11.7168 75.2661 11.9554C75.2576 11.9767 75.2363 11.998 75.2235 12.0193C75.1809 12.0832 75.151 12.1514 75.117 12.2195C75.0232 12.4283 74.9465 12.6499 74.9252 12.8927C74.9338 13.2251 74.9891 13.5659 75.0403 13.911C75.1042 14.3073 75.1766 14.7163 75.232 15.104C75.4876 17.1619 75.6282 19.2283 75.7348 21.299C75.8626 24.0088 75.918 26.7058 75.918 29.4155C75.918 30.9409 75.8967 32.4662 75.854 33.983L75.5984 34.2599L75.0445 34.7669C74.6312 35.1845 74.1285 35.6063 73.5703 35.994C72.8759 36.4797 72.1302 36.9015 71.3378 37.2424C70.5581 37.5875 69.7059 37.8388 68.8069 38.0476C67.9548 38.2351 67.0686 38.3459 66.2335 38.3459C64.4185 38.3459 62.9059 38.1115 61.7087 37.6684C60.5881 37.2253 59.6721 36.5947 58.9989 35.8108C58.3385 35.0268 57.8698 34.0724 57.5801 32.9774C57.2819 31.793 57.12 30.4424 57.12 28.9852V13.0589C57.12 12.2877 56.7365 11.5336 55.8929 11.5336H48.4027C47.5591 11.5336 47.1756 12.2962 47.1756 13.0717V30.2038C47.1756 32.9348 47.4952 35.4231 48.1343 37.5789C48.7947 39.7817 49.83 41.682 51.2488 43.2286C52.6889 44.7539 54.5252 45.917 56.7322 46.7138C58.9094 47.4977 61.5255 47.8727 64.5335 47.8727C66.3869 47.8727 68.3638 47.5957 70.4004 47.0419C71.9342 46.6243 73.4851 45.9895 75.019 45.1629C74.9764 45.4271 74.9338 45.6827 74.9252 45.9469C74.9764 46.6456 75.3428 47.2847 76.0884 47.306H83.9834C84.5373 47.306 84.9761 46.8416 84.9761 46.2451V24.0045C85.5002 23.5188 86.0754 23.0757 86.6932 22.688C87.4515 22.181 88.227 21.7804 89.028 21.4609C89.8588 21.1158 90.7024 20.8644 91.5375 20.6769C92.3683 20.5108 93.2119 20.4 94.0129 20.4C95.5084 20.4 96.8846 20.6556 98.0563 21.12C99.2493 21.5845 100.255 22.2576 101.043 23.1566C101.874 24.0429 102.517 25.1464 102.93 26.4544C103.889 29.3303 103.455 32.3937 104.264 35.3123C105.981 41.3624 110.642 45.2311 116.147 47.0887C118.878 48.0175 122.091 48.482 125.674 48.482C130.412 48.482 135.38 47.8514 139.564 45.4867C140.032 45.2226 139.96 44.8221 139.564 44.4173L139.585 44.4514L139.606 44.4471Z" fill="#CCCCCC"/>
<path d="M274.507 30.9281C274.464 30.0504 274.379 29.1727 274.243 28.3035C274.153 27.7368 274.038 27.1787 273.902 26.6206C273.766 26.0624 273.604 25.5256 273.416 24.993C273.322 24.7288 273.224 24.4689 273.122 24.209V24.1664C272.206 21.8444 270.851 19.7865 269.109 18.0737C267.37 16.3609 265.236 15.0103 262.769 14.0346C260.315 13.0376 257.498 12.5519 254.414 12.5519C251.329 12.5519 248.513 13.0376 246.063 14.0133C243.63 14.9847 241.538 16.2927 239.864 17.9501C238.168 19.5777 236.856 21.4992 235.961 23.6551C235.066 25.7897 234.606 28.0564 234.606 30.3997C234.606 32.9221 235.087 35.308 236.025 37.481C236.962 39.6837 238.394 41.6053 240.247 43.2328C242.105 44.8348 244.418 46.1301 247.171 47.0589C249.902 47.9877 253.114 48.4521 256.697 48.4521C258.116 48.4521 259.471 48.3882 260.732 48.2647C262.023 48.1454 263.263 47.9195 264.422 47.6767C265.598 47.4211 266.736 47.0802 267.818 46.6797C268.529 46.4155 269.237 46.1173 269.94 45.7935C270.302 45.6273 270.664 45.4612 271.03 45.2865C271.499 45.0649 271.968 44.8434 272.428 44.5792C272.884 44.3236 272.803 43.9358 272.428 43.5481C271.35 42.4403 269.705 40.3952 268.883 38.6612C268.789 38.4524 268.704 38.2266 268.538 38.0604C268.222 37.7451 267.784 37.9198 267.43 38.0519C266.655 38.3416 265.841 38.6058 265.018 38.8358C264.29 39.0446 263.557 39.2449 262.811 39.4238C259.258 40.2078 255.47 40.1652 252.56 39.5346C251.107 39.1895 249.808 38.7293 248.687 38.1627C247.588 37.5875 246.672 36.893 245.956 36.1175C245.432 35.5424 245.019 34.9118 244.699 34.2599H273.357C274.396 34.2599 274.545 33.084 274.541 32.283C274.541 31.8313 274.528 31.3797 274.507 30.9281ZM244.687 26.5524C244.942 25.9772 245.253 25.4318 245.667 24.9035C246.242 24.1622 247 23.489 247.874 22.8925C248.768 22.3173 249.804 21.8316 251.009 21.4992C252.185 21.1541 253.536 20.9667 254.997 20.9667C256.352 20.9667 257.63 21.1328 258.764 21.4524C259.897 21.7975 260.898 22.2363 261.755 22.8243C262.586 23.3782 263.31 24.0514 263.868 24.814C264.281 25.3679 264.626 25.9303 264.861 26.5524H244.687Z" fill="#CCCCCC"/>
</svg>
