<svg width="16" height="16" viewBox="0 0 16 16" fill="none" xmlns="http://www.w3.org/2000/svg">
<rect width="16" height="16" rx="4" fill="#E5006E"/>
<path d="M7.43361 10.7105C5.77834 10.6443 4.45998 9.28323 4.40627 7.55349C4.37697 6.57993 4.74318 5.6867 5.43654 5.02978C5.94923 4.54773 6.60353 4.25471 7.292 4.19327V3.3993L4.62111 3.01649C3.74709 2.89833 3.00002 3.42765 3.00002 4.20745V10.5404C2.99514 11.2918 3.77151 11.8495 4.61135 11.7313L7.42872 11.3343V10.7152L7.43361 10.7105Z" fill="white"/>
<path d="M12.7509 4.44848C12.5947 4.25471 12.3847 4.12711 12.165 4.09875L8.31737 3.54581V4.27362C9.09861 4.44848 9.7285 4.86438 10.1875 5.50712L10.2754 5.63L9.57713 6.26329L9.45506 6.09787C8.97166 5.44568 8.29295 5.27082 7.80467 5.24246H7.71678C7.71678 5.24246 7.68749 5.24246 7.67772 5.24246C7.1455 5.24246 6.63768 5.45041 6.24706 5.83322C5.79784 6.27274 5.55859 6.86822 5.583 7.51569C5.61718 8.71611 6.54003 9.65186 7.68748 9.65186C7.74608 9.65186 7.80956 9.65186 7.86815 9.64241H7.87791L7.94139 9.63769C8.83983 9.52426 9.56736 8.8059 9.74803 7.89377L7.33104 7.99775L7.29686 6.93439L10.6904 6.87767L10.7051 7.36446C10.7441 8.82953 9.80174 10.1576 8.45408 10.5734V11.1831L12.1552 10.6585C12.6289 10.5923 13 10.1056 13 9.5668V5.19047C13 4.92109 12.9121 4.66115 12.7461 4.44848H12.7509Z" fill="white"/>
</svg>
