<svg width="388" height="48" viewBox="0 0 388 48" fill="none" xmlns="http://www.w3.org/2000/svg">
<path d="M154.094 27.0111H133.802V45.7973H125.035V0.859375H133.802V19.8773H154.094V0.859375H162.861V45.7973H154.094V26.498V27.0111Z" fill="#CCCCCC"/>
<path d="M68.8147 0.859375H65.0668H61.3189L42.2656 45.7973H51.4621L64.8522 13.3394H65.298L78.5395 45.7973H87.868L68.8147 0.859375Z" fill="#CCCCCC"/>
<path d="M86.5165 35.9172L86.5991 36.1489C87.2265 37.7875 90.8753 46.3779 102.862 46.8413C122.08 47.5696 121.734 35.1393 121.734 32.5903C121.734 30.902 120.809 25.8041 115.195 22.8413C107.997 19.0179 95.7294 19.4813 95.7294 12.1158C95.7294 9.86477 97.7272 6.70339 103.671 6.58753C109.433 6.47166 112.438 10.2455 112.851 12.3475L119.422 10.411C118.25 7.84546 115.757 0.628906 103.357 0.628906C100.93 0.628906 98.7179 0.910286 96.8357 1.53925C89.1252 4.15442 87.7383 10.1296 87.7383 13.1089C87.8374 30.3061 113.33 25.8537 113.049 34.742C112.95 38.0027 109.763 40.5682 103.374 40.3034C96.7366 40.022 94.4746 35.9503 93.418 33.5668L86.5 35.9337L86.5165 35.9172Z" fill="#CCCCCC"/>
<path d="M22.9663 7.34851C28.7285 7.23265 32.1627 10.2285 32.7736 12.2147L39.8072 10.2782C38.6349 7.71265 34.6063 0.992646 23.214 0.496094C1.63455 0.512645 0 20.772 0 22.8244C0 44.1761 15.8337 46.5595 21.9922 46.8409C27.4902 47.1058 35.9437 46.5264 40.0878 45.6989V19.8616H17.8315V26.9954H31.7334C31.7334 26.9954 31.8655 27.0616 31.8655 27.1278V39.6409C31.8655 39.6409 31.816 39.7899 31.7334 39.823C31.7334 39.823 28.2827 40.5182 23.3295 40.3526C21.3813 40.2864 9.16341 39.8064 9.16341 23.7513C9.16341 13.4395 14.2982 7.44782 22.9663 7.34851Z" fill="#CCCCCC"/>
<path d="M252.843 0.927734C254.66 0.927734 256.294 1.20911 257.78 1.77187C259.25 2.33463 260.521 3.16222 261.577 4.27118C262.634 5.38015 263.443 6.72084 264.021 8.29325C264.582 9.88222 264.88 11.6698 264.88 13.6726C264.88 15.6753 264.599 17.4629 264.021 19.0519C263.46 20.6408 262.651 21.9815 261.577 23.0739C260.521 24.1829 259.25 25.0105 257.78 25.5733C256.311 26.136 254.66 26.4174 252.843 26.4174H238.727V45.7995H234.863V0.927734H252.843ZM252.001 22.7926C254.676 22.7926 256.855 22.0477 258.523 20.5415C260.174 19.0519 261.016 16.7512 261.016 13.6726C261.016 10.5939 260.191 8.29325 258.523 6.8036C256.855 5.29739 254.676 4.55256 252.001 4.55256H238.727V22.7926H252.001Z" fill="#CCCCCC"/>
<path d="M269.025 14.4166C269.817 11.6193 271.006 9.16965 272.591 7.01793C274.176 4.88276 276.174 3.16138 278.568 1.90345C280.962 0.628965 283.752 0 286.939 0C290.125 0 292.899 0.628965 295.277 1.90345C297.654 3.16138 299.635 4.88276 301.22 7.01793C302.805 9.16965 303.994 11.6359 304.787 14.4166C305.579 17.2138 305.976 20.1434 305.976 23.2221C305.976 26.3007 305.579 29.2303 304.787 32.0276C303.994 34.8248 302.805 37.2745 301.22 39.3931C299.635 41.5117 297.654 43.2165 295.277 44.491C292.899 45.7655 290.109 46.3945 286.939 46.3945C283.769 46.3945 280.978 45.7655 278.568 44.491C276.174 43.2165 274.176 41.5283 272.591 39.3931C271.006 37.2745 269.817 34.8083 269.025 32.0276C268.232 29.2303 267.836 26.3007 267.836 23.2221C267.836 20.1434 268.232 17.2138 269.025 14.4166ZM272.558 30.389C273.152 32.7393 274.044 34.8414 275.282 36.6952C276.521 38.549 278.089 40.0386 280.021 41.1641C281.953 42.2897 284.247 42.8524 286.939 42.8524C289.63 42.8524 291.908 42.2897 293.824 41.1641C295.739 40.0386 297.307 38.549 298.529 36.6952C299.751 34.8414 300.659 32.7393 301.253 30.389C301.848 28.0386 302.129 25.6552 302.129 23.2386C302.129 20.8221 301.831 18.389 301.253 16.0552C300.659 13.7214 299.751 11.6359 298.529 9.78207C297.307 7.92828 295.739 6.43862 293.824 5.3131C291.908 4.18759 289.613 3.62483 286.939 3.62483C284.264 3.62483 281.953 4.18759 280.021 5.3131C278.089 6.43862 276.521 7.92828 275.282 9.78207C274.044 11.6359 273.152 13.7214 272.558 16.0552C271.98 18.389 271.683 20.789 271.683 23.2386C271.683 25.6883 271.98 28.0386 272.558 30.389Z" fill="#CCCCCC"/>
<path d="M313.867 0.927734V45.7829H310.02V0.927734H313.867Z" fill="#CCCCCC"/>
<path d="M324.317 0.927734L347.911 38.6657H348.026V0.927734H351.89V45.5346H347.581L323.987 7.7967H323.871V45.7829H320.008V0.927734H324.317Z" fill="#CCCCCC"/>
<path d="M387.09 0.927734V4.55256H372.974V45.7829H369.11V4.55256H355.043V0.927734H387.074H387.09Z" fill="#CCCCCC"/>
<path d="M173.231 6.55467C173.247 2.41699 177.062 -0.396543 181.536 0.232399L196.148 2.39597V7.36619C192.565 7.4655 189.114 8.90502 186.356 11.5864C183.021 14.8305 181.222 19.3834 181.354 24.2661C181.635 33.6338 188.817 40.3033 196.874 40.1216L196.841 44.2099L200.259 43.7134V39.6426C207.193 37.7722 211.982 30.8367 211.8 23.3388H211.816L211.766 21.6836L196.247 21.9487L196.363 25.6885L208.927 25.126C208.366 30.7866 204.188 35.6358 198.607 36.3144C191.921 37.1251 185.78 31.7133 185.565 24.1328C185.449 20.4584 186.786 17.0153 189.246 14.5161C191.64 12.0995 194.728 10.9249 197.931 11.1235H197.947C200.705 11.289 204.419 12.2987 207.094 16.0556L209.307 13.9697C206.484 9.88166 202.752 8.25946 199.549 7.66355V2.89988L220.203 5.95994C221.326 6.12544 222.383 6.78648 223.192 7.82908C224.051 8.9546 224.513 10.3461 224.513 11.7695V35.0239C224.513 37.8708 222.614 40.4697 220.187 40.8174L181.502 46.4775C177.193 47.0897 173.198 44.144 173.231 40.1553V6.55467Z" fill="#CCCCCC"/>
</svg>
