<svg width="266" height="32" viewBox="0 0 266 32" fill="none" xmlns="http://www.w3.org/2000/svg">
<g clip-path="url(#clip0_1720_102)">
<path d="M105.493 18.4201H91.6043V31.2304H85.5932V0.581501H91.6043V13.5457H105.493V0.581501H111.487V31.2304H105.493V18.078V18.4201Z" fill="white"/>
<path d="M47.1122 0.581501H44.5434H41.9746L28.9421 31.2304H35.2272L44.3893 9.09887H44.6976L53.7741 31.2304H60.1448L47.1122 0.581501Z" fill="white"/>
<path d="M59.2371 24.4917L59.3056 24.6456C59.7337 25.7573 62.2341 31.6237 70.4372 31.9316C83.5896 32.4276 83.3669 23.9615 83.3669 22.217C83.3669 21.0711 82.7333 17.582 78.8972 15.5639C73.965 12.9471 65.5735 13.272 65.5735 8.24371C65.5735 6.70443 66.9436 4.54943 71.0195 4.46392C74.9583 4.3955 77.0134 6.96098 77.3045 8.39764L81.8085 7.0807C81.0036 5.31907 79.3082 0.410469 70.8139 0.410469C69.1528 0.410469 67.6457 0.598604 66.3442 1.04329C61.0695 2.82201 60.1105 6.89256 60.1276 8.92784C60.1961 20.6606 77.647 17.6162 77.4586 23.6879C77.3901 25.9113 75.2152 27.6729 70.8311 27.4848C66.2928 27.2966 64.7344 24.5088 64.0151 22.884L59.2885 24.4917H59.2371Z" fill="white"/>
<path d="M15.7212 5.01122C19.6601 4.9257 22.0063 6.97808 22.4344 8.32923L27.2467 7.01229C26.4418 5.25066 23.6846 0.684119 15.8925 0.342056C1.11316 0.342056 0 14.1614 0 15.5639C0 30.1358 10.8404 31.7434 15.0533 31.9487C18.8209 32.1368 24.6093 31.7434 27.4351 31.1619V13.5457H12.1934V18.4201H21.7151C21.7151 18.4201 21.8008 18.4543 21.8008 18.5056V27.0401C21.8008 27.0401 21.7665 27.1427 21.7151 27.1598C21.7151 27.1598 19.3518 27.6216 15.961 27.519C14.6252 27.4848 6.26793 27.1427 6.26793 16.1967C6.26793 9.16728 9.77866 5.07963 15.7212 5.01122Z" fill="white"/>
<path d="M173.087 0.632816C174.338 0.632816 175.451 0.820951 176.461 1.21432C177.472 1.59059 178.328 2.155 179.064 2.92464C179.783 3.67718 180.349 4.60075 180.725 5.67825C181.119 6.75574 181.308 7.97007 181.308 9.33832C181.308 10.7066 181.119 11.9209 180.725 12.9984C180.332 14.0759 179.783 14.9995 179.064 15.752C178.345 16.5045 177.472 17.0689 176.461 17.4623C175.451 17.8386 174.32 18.0267 173.087 18.0267H163.429V31.2475H160.791V0.632816H173.105H173.087ZM172.505 15.5468C174.338 15.5468 175.828 15.0337 176.975 14.0075C178.105 12.9813 178.687 11.4249 178.687 9.32122C178.687 7.21753 178.122 5.66114 176.975 4.63495C175.845 3.60877 174.338 3.09567 172.505 3.09567H163.429V15.5297H172.505V15.5468Z" fill="white"/>
<path d="M184.168 9.83431C184.716 7.93586 185.521 6.25975 186.617 4.78888C187.695 3.33511 189.066 2.155 190.71 1.29984C192.354 0.427579 194.272 0 196.447 0C198.622 0 200.522 0.427579 202.149 1.29984C203.776 2.155 205.146 3.33511 206.225 4.78888C207.321 6.25975 208.126 7.93586 208.674 9.83431C209.222 11.7328 209.496 13.7338 209.496 15.8375C209.496 17.9412 209.222 19.9423 208.674 21.8407C208.126 23.7392 207.321 25.4153 206.225 26.8691C205.146 28.3228 203.776 29.4687 202.149 30.341C200.522 31.2133 198.622 31.6408 196.447 31.6408C194.272 31.6408 192.354 31.2133 190.71 30.341C189.066 29.4687 187.695 28.3228 186.617 26.8691C185.538 25.4153 184.716 23.7392 184.168 21.8407C183.62 19.9252 183.363 17.9412 183.363 15.8375C183.363 13.7338 183.637 11.7328 184.168 9.83431ZM186.599 20.729C187.01 22.3367 187.627 23.7734 188.466 25.039C189.305 26.3047 190.384 27.3308 191.703 28.0834C193.022 28.853 194.597 29.2293 196.447 29.2293C198.296 29.2293 199.855 28.8359 201.156 28.0834C202.458 27.3137 203.537 26.3047 204.376 25.039C205.215 23.7734 205.831 22.3367 206.242 20.729C206.636 19.1213 206.842 17.4965 206.842 15.8546C206.842 14.2127 206.636 12.5366 206.242 10.9631C205.831 9.37253 205.215 7.95297 204.376 6.68733C203.537 5.4217 202.458 4.39551 201.156 3.64297C199.855 2.87333 198.279 2.49706 196.447 2.49706C194.614 2.49706 193.022 2.87333 191.703 3.64297C190.384 4.41261 189.305 5.4217 188.466 6.68733C187.627 7.95297 187.01 9.37253 186.599 10.9631C186.206 12.5537 186 14.1785 186 15.8546C186 17.5307 186.206 19.1213 186.599 20.729Z" fill="white"/>
<path d="M214.874 0.632816V31.2304H212.236V0.632816H214.874Z" fill="white"/>
<path d="M222.015 0.632816L238.164 26.3731H238.233V0.632816H240.87V31.0593H237.925L221.775 5.31908H221.707V31.2304H219.069V0.632816H222.015Z" fill="white"/>
<path d="M265 0.632816V3.11277H255.341V31.2304H252.704V3.11277H243.079V0.632816H265.017H265Z" fill="white"/>
<path d="M134.144 27.9979C128.339 27.7584 123.715 22.8327 123.526 16.573C123.423 13.0497 124.708 9.81721 127.14 7.43987C128.938 5.69535 131.233 4.63495 133.647 4.41261V1.53928L124.28 0.153928C121.214 -0.273651 118.594 1.6419 118.594 4.46392V27.3821C118.577 30.1016 121.3 32.1197 124.246 31.6921L134.127 30.2555V28.015L134.144 27.9979Z" fill="white"/>
<path d="M152.794 5.33618C152.246 4.63495 151.509 4.17317 150.739 4.07055L137.244 2.06948V4.70337C139.984 5.33618 142.193 6.84126 143.803 9.16729L144.111 9.61197L141.662 11.9038L141.234 11.3052C139.539 8.94495 137.158 8.31213 135.446 8.20951H135.137C135.137 8.20951 135.035 8.20951 135 8.20951C133.134 8.20951 131.353 8.96205 129.983 10.3474C128.407 11.938 127.568 14.093 127.653 16.4361C127.773 20.7803 131.01 24.1668 135.035 24.1668C135.24 24.1668 135.463 24.1668 135.668 24.1325H135.702L135.925 24.1154C139.076 23.705 141.628 21.1053 142.262 17.8044L133.784 18.1807L133.665 14.3324L145.567 14.1272L145.618 15.8888C145.755 21.1908 142.45 25.9968 137.723 27.5019V29.7082L150.704 27.8097C152.366 27.5703 153.667 25.8087 153.667 23.8589V8.02138C153.667 7.0465 153.359 6.10582 152.777 5.33618H152.794Z" fill="white"/>
</g>
<defs>
<clipPath id="clip0_1720_102">
<rect width="266" height="32" fill="white"/>
</clipPath>
</defs>
</svg>
