<svg width="388" height="48" viewBox="0 0 388 48" fill="none" xmlns="http://www.w3.org/2000/svg">
<path d="M154.094 27.0126H133.802V45.7988H125.035V0.86084H133.802V19.8788H154.094V0.86084H162.861V45.7988H154.094V26.4995V27.0126Z" fill="#DA005C"/>
<path d="M68.8167 0.86084H65.0688H61.3209L42.2676 45.7988H51.464L64.8541 13.3408H65.2999L78.5415 45.7988H87.87L68.8167 0.86084Z" fill="#DA005C"/>
<path d="M86.5165 35.9172L86.5991 36.1489C87.2265 37.7875 90.8753 46.3779 102.862 46.8413C122.08 47.5696 121.734 35.1393 121.734 32.5903C121.734 30.902 120.809 25.8041 115.195 22.8413C107.997 19.0179 95.7294 19.4813 95.7294 12.1158C95.7294 9.86477 97.7272 6.70339 103.671 6.58753C109.433 6.47166 112.438 10.2455 112.851 12.3475L119.422 10.411C118.25 7.84546 115.757 0.628906 103.357 0.628906C100.93 0.628906 98.7179 0.910286 96.8357 1.53925C89.1252 4.15442 87.7383 10.1296 87.7383 13.1089C87.8374 30.3061 113.33 25.8537 113.049 34.742C112.95 38.0027 109.763 40.5682 103.374 40.3034C96.7366 40.022 94.4746 35.9503 93.418 33.5668L86.5 35.9337L86.5165 35.9172Z" fill="#DA005C"/>
<path d="M22.9663 7.349C28.7285 7.23313 32.1627 10.229 32.7736 12.2152L39.8072 10.2787C38.6349 7.71313 34.6063 0.993134 23.214 0.496582C1.63455 0.513134 0 20.7724 0 22.8249C0 44.1766 15.8337 46.56 21.9922 46.8414C27.4902 47.1062 35.9437 46.5269 40.0878 45.6993V19.8621H17.8315V26.9959H31.7334C31.7334 26.9959 31.8655 27.0621 31.8655 27.1283V39.6414C31.8655 39.6414 31.816 39.7904 31.7334 39.8235C31.7334 39.8235 28.2827 40.5187 23.3295 40.3531C21.3813 40.2869 9.16341 39.8069 9.16341 23.7518C9.16341 13.44 14.2982 7.44831 22.9663 7.349Z" fill="#DA005C"/>
<path d="M252.843 0.926758C254.66 0.926758 256.294 1.20814 257.78 1.7709C259.25 2.33365 260.521 3.16124 261.577 4.27021C262.634 5.37917 263.443 6.71986 264.021 8.29228C264.582 9.88124 264.88 11.6688 264.88 13.6716C264.88 15.6743 264.599 17.4619 264.021 19.0509C263.46 20.6399 262.651 21.9806 261.577 23.073C260.521 24.1819 259.25 25.0095 257.78 25.5723C256.311 26.135 254.66 26.4164 252.843 26.4164H238.727V45.7985H234.863V0.926758H252.843ZM252.001 22.7916C254.676 22.7916 256.855 22.0468 258.523 20.5406C260.174 19.0509 261.016 16.7502 261.016 13.6716C261.016 10.593 260.191 8.29228 258.523 6.80262C256.855 5.29641 254.676 4.55159 252.001 4.55159H238.727V22.7916H252.001Z" fill="#6FBA2C"/>
<path d="M269.025 14.4166C269.817 11.6193 271.006 9.16965 272.591 7.01793C274.176 4.88276 276.174 3.16138 278.568 1.90345C280.962 0.628965 283.752 0 286.939 0C290.125 0 292.899 0.628965 295.277 1.90345C297.654 3.16138 299.635 4.88276 301.22 7.01793C302.805 9.16965 303.994 11.6359 304.787 14.4166C305.579 17.2138 305.976 20.1434 305.976 23.2221C305.976 26.3007 305.579 29.2303 304.787 32.0276C303.994 34.8248 302.805 37.2745 301.22 39.3931C299.635 41.5117 297.654 43.2165 295.277 44.491C292.899 45.7655 290.109 46.3945 286.939 46.3945C283.769 46.3945 280.978 45.7655 278.568 44.491C276.174 43.2165 274.176 41.5283 272.591 39.3931C271.006 37.2745 269.817 34.8083 269.025 32.0276C268.232 29.2303 267.836 26.3007 267.836 23.2221C267.836 20.1434 268.232 17.2138 269.025 14.4166ZM272.558 30.389C273.152 32.7393 274.044 34.8414 275.282 36.6952C276.521 38.549 278.089 40.0386 280.021 41.1641C281.953 42.2897 284.247 42.8524 286.939 42.8524C289.63 42.8524 291.908 42.2897 293.824 41.1641C295.739 40.0386 297.307 38.549 298.529 36.6952C299.751 34.8414 300.659 32.7393 301.253 30.389C301.848 28.0386 302.129 25.6552 302.129 23.2386C302.129 20.8221 301.831 18.389 301.253 16.0552C300.659 13.7214 299.751 11.6359 298.529 9.78207C297.307 7.92828 295.739 6.43862 293.824 5.3131C291.908 4.18759 289.613 3.62483 286.939 3.62483C284.264 3.62483 281.953 4.18759 280.021 5.3131C278.089 6.43862 276.521 7.92828 275.282 9.78207C274.044 11.6359 273.152 13.7214 272.558 16.0552C271.98 18.389 271.683 20.789 271.683 23.2386C271.683 25.6883 271.98 28.0386 272.558 30.389Z" fill="#6FBA2C"/>
<path d="M313.867 0.926758V45.7819H310.02V0.926758H313.867Z" fill="#6FBA2C"/>
<path d="M324.317 0.926758L347.911 38.6647H348.026V0.926758H351.89V45.5337H347.581L323.987 7.79572H323.871V45.7819H320.008V0.926758H324.317Z" fill="#6FBA2C"/>
<path d="M387.092 0.926758V4.55159H372.975V45.7819H369.112V4.55159H355.045V0.926758H387.076H387.092Z" fill="#6FBA2C"/>
<path d="M223.19 7.82915C222.381 6.78639 221.324 6.12432 220.201 5.95881L181.534 0.23191C177.059 -0.397055 173.245 2.41674 173.229 6.55467V40.1547C173.196 44.1436 177.191 47.0898 181.501 46.4774L220.185 40.8167C222.612 40.4692 224.511 37.8705 224.511 35.0236V11.7685C224.511 10.345 224.048 8.95467 223.19 7.82915Z" fill="#6FBA2C"/>
<path d="M211.815 23.3383L211.765 21.6831L196.245 21.9479L196.361 25.6886L208.925 25.1259C208.364 30.7865 204.187 35.6362 198.606 36.3148C191.919 37.1259 185.777 31.7134 185.563 24.1328C185.447 20.4583 186.785 17.0155 189.245 14.5162C191.639 12.0997 194.726 10.9245 197.929 11.1231C197.929 11.1231 197.929 11.1231 197.946 11.1231C200.703 11.2886 204.418 12.2983 207.093 16.0555L209.305 13.97C206.482 9.88172 202.75 8.25965 199.547 7.66379V2.89689L196.146 2.38379V7.36586C192.563 7.46517 189.113 8.90517 186.355 11.5865C183.02 14.8307 181.22 19.3824 181.352 24.2652C181.633 33.6334 188.815 40.3038 196.872 40.1217L196.839 44.21L200.257 43.7134V39.6417C207.192 37.7714 211.98 30.8362 211.798 23.3383H211.815Z" fill="white"/>
</svg>
